<svg xmlns="http://www.w3.org/2000/svg" viewBox="0 0 319.28 324.68"><defs><style>.cls-1{fill:#ff4713;}.cls-2{fill:#fff;}</style></defs><g id="Layer_2" data-name="Layer 2"><g id="Layer_1-2" data-name="Layer 1"><path class="cls-1" d="M35.48,73.8H120.6a4.13,4.13,0,0,0,4.13-4.12V58.43A5.44,5.44,0,0,1,130.16,53h32.47v-.56h1.22a.61.61,0,0,0,.6-.61H130.16a6.61,6.61,0,0,0-6.61,6.6V69.67a3,3,0,0,1-3,3H35.48a3,3,0,0,1-2.95-2.95V0H31.36V69.68A4.13,4.13,0,0,0,35.48,73.8Z"/><path class="cls-1" d="M318.1,0V48.87a5.43,5.43,0,0,1-5.43,5.43H219.34v.55h-6.05v-.55h-44.6v.55h-6.05v-.55H130.16A4.13,4.13,0,0,0,126,58.43V69.67a5.44,5.44,0,0,1-5.43,5.43H35.48a5.44,5.44,0,0,1-5.43-5.43V0H28.88V69.68a6.61,6.61,0,0,0,6.6,6.6H120.6a6.61,6.61,0,0,0,6.6-6.6V58.43a3,3,0,0,1,3-3H312.67a6.62,6.62,0,0,0,6.61-6.61V0Z"/><path class="cls-1" d="M310.31,261.55H220.8v.56h-6.06v-.56H185.82a5.44,5.44,0,0,1-5.43-5.43v-15.7a4.13,4.13,0,0,0-4.12-4.13H157.18v.39h-6.06v-.39H132.43a4.13,4.13,0,0,0-4.13,4.13v7.38a5.79,5.79,0,0,1-5.78,5.79H91.91v.63h-6v-.63H47.78v1.17h74.74a7,7,0,0,0,7-7v-7.38a3,3,0,0,1,3-2.95h43.84a3,3,0,0,1,2.95,2.95v15.7a6.62,6.62,0,0,0,6.6,6.61H310.31a3,3,0,0,1,2.95,2.95v58.71l1.18.09v-58.8A4.13,4.13,0,0,0,310.31,261.55Z"/><path class="cls-1" d="M310.31,259.07H219a.61.61,0,0,0,.61.61h1.22v.56h89.51a5.44,5.44,0,0,1,5.43,5.43v58.88l1.18.07V265.67A6.62,6.62,0,0,0,310.31,259.07Z"/><path class="cls-1" d="M174.4,138.91H150.87a.56.56,0,0,0,.49.32h1.22v.85H174.4a5.44,5.44,0,0,1,5.43,5.43V153a4.13,4.13,0,0,0,4.12,4.13h28.19v-.18h1.22a.6.6,0,0,0,.6-.6v-.4H184A3,3,0,0,1,181,153v-7.45A6.61,6.61,0,0,0,174.4,138.91Z"/><path class="cls-1" d="M111.83,171.17A4.13,4.13,0,0,0,116,167V145.51a5.44,5.44,0,0,1,5.43-5.43h25.14v-.85h1.22a.58.58,0,0,0,.49-.32H121.38a6.61,6.61,0,0,0-6.6,6.6V167a3,3,0,0,1-3,3H80a.61.61,0,0,0,.61.61h1.22v.56Z"/><path class="cls-1" d="M85.86,251.8h1.22a.61.61,0,0,0,.6-.61v-.08H47.78a6.61,6.61,0,0,0-6.6,6.6v67l1.17-.06V257.71a5.44,5.44,0,0,1,5.43-5.43H85.86Z"/><path class="cls-1" d="M118.66,200.74v-8.4a3,3,0,0,1,3-3H176.8a3,3,0,0,1,2.95,3v8.86a6.62,6.62,0,0,0,6.61,6.6H279.8a6.61,6.61,0,0,0,6.6-6.6V162.52a6.62,6.62,0,0,0-6.6-6.61H216.36v.4a.6.6,0,0,0,.61.6h1.22v.18H279.8a5.43,5.43,0,0,1,5.42,5.43V201.2a5.43,5.43,0,0,1-5.42,5.43H217.66v.84h-6v-.84H186.36a5.44,5.44,0,0,1-5.43-5.43v-8.86a4.13,4.13,0,0,0-4.13-4.13H152.28v.54h-6.05v-.54H121.62a4.14,4.14,0,0,0-4.13,4.13v8.4a6,6,0,0,1-6,6H7.43a4.13,4.13,0,0,0-4.13,4.12V324.5l1.17-.08V210.86a3,3,0,0,1,3-3H111.49A7.18,7.18,0,0,0,118.66,200.74Z"/><path class="cls-1" d="M185.81,260.25h28.93v-.56H216a.62.62,0,0,0,.61-.61H185.81a3,3,0,0,1-2.95-2.95v-15.7a6.62,6.62,0,0,0-6.6-6.61H155.41a.57.57,0,0,0,.54.45h1.22V235h19.09a5.44,5.44,0,0,1,5.43,5.43v15.7A4.13,4.13,0,0,0,185.81,260.25Z"/><path class="cls-1" d="M122.51,252.28A4.49,4.49,0,0,0,127,247.8v-7.38a5.44,5.44,0,0,1,5.43-5.43h18.7v-.73h1.22a.58.58,0,0,0,.54-.45H132.42a6.62,6.62,0,0,0-6.6,6.61v7.38a3.31,3.31,0,0,1-3.31,3.31H90.08v.08a.61.61,0,0,0,.61.61h1.22v.48Z"/><path class="cls-1" d="M6.6,171.17H75.77v-.56H77a.62.62,0,0,0,.61-.61H6.6a3,3,0,0,1-2.95-3V0H2.48V167A4.13,4.13,0,0,0,6.6,171.17Z"/><path class="cls-1" d="M186.36,205.32h25.25v-.27h1.22a.61.61,0,0,0,.6-.61v-.29H186.36a3,3,0,0,1-3-3v-8.86a6.62,6.62,0,0,0-6.61-6.6H150.46a.6.6,0,0,0,.6.6h1.22v.57H176.8a5.44,5.44,0,0,1,5.43,5.43v8.86A4.13,4.13,0,0,0,186.36,205.32Z"/><path class="cls-1" d="M7.43,205.43H111.49a4.7,4.7,0,0,0,4.7-4.69v-8.4a5.44,5.44,0,0,1,5.43-5.43h24.61v-.57h1.21a.62.62,0,0,0,.61-.61H121.62a6.62,6.62,0,0,0-6.61,6.6v8.4a3.53,3.53,0,0,1-3.52,3.52H7.43a6.61,6.61,0,0,0-6.61,6.6V324.65L2,324.58V210.86A5.44,5.44,0,0,1,7.43,205.43Z"/><path class="cls-1" d="M218.12,52.44h1.21V53h93.33a4.13,4.13,0,0,0,4.13-4.13V0h-1.18V48.87a3,3,0,0,1-2.95,3H217.51A.61.61,0,0,0,218.12,52.44Z"/><path class="cls-1" d="M167.46,52.44h1.22V53h44.6v-.56h1.22a.62.62,0,0,0,.61-.61H166.85A.61.61,0,0,0,167.46,52.44Z"/><path class="cls-1" d="M6.6,173.65H111.83a6.61,6.61,0,0,0,6.6-6.61V145.51a3,3,0,0,1,2.95-2.95h53a3,3,0,0,1,3,2.95V153a6.62,6.62,0,0,0,6.6,6.61H279.8a3,3,0,0,1,2.95,3V201.2a3,3,0,0,1-2.95,3h-64v.29a.61.61,0,0,0,.61.61h1.21v.27H279.8a4.13,4.13,0,0,0,4.12-4.12V162.52a4.13,4.13,0,0,0-4.12-4.13H218.2v.94h-6.06v-.94H184a5.43,5.43,0,0,1-5.43-5.43v-7.45a4.13,4.13,0,0,0-4.12-4.12H152.58v.26h-6.05v-.26H121.38a4.13,4.13,0,0,0-4.12,4.12V167a5.44,5.44,0,0,1-5.43,5.43h-30V173h-6v-.56H6.6A5.44,5.44,0,0,1,1.17,167V0H0V167A6.61,6.61,0,0,0,6.6,173.65Z"/><path class="cls-1" d="M43.66,257.71v66.82l1.17-.08V257.71a3,3,0,0,1,3-2.95v-1.17A4.12,4.12,0,0,0,43.66,257.71Z"/><path class="cls-2" d="M213.55,244h-3.63a.61.61,0,0,0-.61.61v3.62a.61.61,0,0,0,.61.61h3.63a.6.6,0,0,0,.6-.61v-3.62A.61.61,0,0,0,213.55,244Zm-.61,3.63h-2.42v-2.42h2.42Z"/><path class="cls-2" d="M225.64,244H222a.61.61,0,0,0-.61.61v3.62a.61.61,0,0,0,.61.61h3.63a.6.6,0,0,0,.6-.61v-3.62A.61.61,0,0,0,225.64,244Zm-.61,3.63h-2.42v-2.42H225Z"/><path class="cls-2" d="M217.78,238.55a2.42,2.42,0,1,0,2.41,2.41A2.41,2.41,0,0,0,217.78,238.55Zm0,3.62A1.21,1.21,0,1,1,219,241,1.21,1.21,0,0,1,217.78,242.17Z"/><path class="cls-2" d="M240,253.66h-4.08v-1.21a1.7,1.7,0,0,0-1.81-1.82,1.79,1.79,0,0,0-.89.24,1.81,1.81,0,0,0-3.06,0,1.77,1.77,0,0,0-.89-.24,2,2,0,0,0-.6.11v-8l.88.57.06,0,.06,0a.57.57,0,0,0,.42,0l0,0a.62.62,0,0,0,.17-.11s0,0,0,0l.06-.07,0-.05a.54.54,0,0,0,.05-.11.5.5,0,0,0,0-.12.43.43,0,0,1,0-.05v-2.42s0,0,0-.06a.53.53,0,0,0,0-.12.3.3,0,0,0,0-.1l-.06-.1-.09-.08,0-.05L218.11,232a.61.61,0,0,0-.66,0l-12.09,7.86a.1.1,0,0,0,0,.05.24.24,0,0,0-.09.08.36.36,0,0,0-.07.1,1,1,0,0,0,0,.1.5.5,0,0,0,0,.12.14.14,0,0,0,0,.06v2.42a.43.43,0,0,1,0,.05l0,.12a.49.49,0,0,0,0,.11s0,0,0,.05,0,0,0,0l.09.09.09.06.11,0,.12,0h.11l.12,0,.11,0,.05,0,.88-.57v8a2.36,2.36,0,0,0-.61-.09,1.82,1.82,0,0,0-.89.24,1.8,1.8,0,0,0-3.05,0,1.81,1.81,0,0,0-2.71,1.58v1.21h-4.08a.6.6,0,0,0,0,1.2H240a.6.6,0,1,0,0-1.2Zm-33.09,0h-6.05v-1.21a.61.61,0,1,1,1.21,0,.61.61,0,0,0,1.21,0v-.61a.61.61,0,0,1,1.21,0v.61a.61.61,0,0,0,1.21,0,.6.6,0,0,1,.6-.61c.5,0,.61.24.61.61Zm-.61-12v-1l11.49-7.47,11.48,7.47v1l-11.15-7.25a.61.61,0,0,0-.66,0Zm12.7,12h-2.42v-6H219Zm8.46,0H220.2V247a.61.61,0,0,0-.61-.61H216a.6.6,0,0,0-.6.61v6.65h-7.25V241.93l9.67-6.29,9.67,6.29Zm7.25,0h-6v-1.21a.61.61,0,1,1,1.21,0,.61.61,0,0,0,1.21,0v-.61a.6.6,0,0,1,1.2,0v.61a.61.61,0,0,0,1.21,0,.61.61,0,0,1,.61-.61c.5,0,.6.24.6.61Z"/><path class="cls-2" d="M64.81,105.85V165H93V105.85Zm1.31,57.82V107.15H91.66v56.52Z"/><path class="cls-2" d="M74.66,111H71a.6.6,0,0,0-.6.6v3.63a.6.6,0,0,0,.6.6h3.63a.6.6,0,0,0,.6-.6v-3.63A.6.6,0,0,0,74.66,111Zm-.61,3.62H71.63v-2.41h2.42Z"/><path class="cls-2" d="M86.75,111H83.12a.6.6,0,0,0-.6.6v3.63a.6.6,0,0,0,.6.6h3.63a.6.6,0,0,0,.6-.6v-3.63A.6.6,0,0,0,86.75,111Zm-.61,3.62H83.72v-2.41h2.42Z"/><path class="cls-2" d="M74.66,120.49H71a.6.6,0,0,0-.6.6v3.63a.6.6,0,0,0,.6.6h3.63a.6.6,0,0,0,.6-.6v-3.63A.6.6,0,0,0,74.66,120.49Zm-.61,3.62H71.63V121.7h2.42Z"/><path class="cls-2" d="M86.75,120.49H83.12a.6.6,0,0,0-.6.6v3.63a.6.6,0,0,0,.6.6h3.63a.6.6,0,0,0,.6-.6v-3.63A.6.6,0,0,0,86.75,120.49Zm-.61,3.62H83.72V121.7h2.42Z"/><path class="cls-2" d="M74.66,130H71a.6.6,0,0,0-.6.6v3.63a.6.6,0,0,0,.6.6h3.63a.6.6,0,0,0,.6-.6v-3.63A.6.6,0,0,0,74.66,130Zm-.61,3.62H71.63v-2.41h2.42Z"/><path class="cls-2" d="M86.75,130H83.12a.6.6,0,0,0-.6.6v3.63a.6.6,0,0,0,.6.6h3.63a.6.6,0,0,0,.6-.6v-3.63A.6.6,0,0,0,86.75,130Zm-.61,3.62H83.72v-2.41h2.42Z"/><path class="cls-2" d="M74.66,139.53H71a.6.6,0,0,0-.6.6v3.63a.6.6,0,0,0,.6.6h3.63a.6.6,0,0,0,.6-.6v-3.63A.6.6,0,0,0,74.66,139.53Zm-.61,3.62H71.63v-2.41h2.42Z"/><path class="cls-2" d="M86.75,139.53H83.12a.6.6,0,0,0-.6.6v3.63a.6.6,0,0,0,.6.6h3.63a.6.6,0,0,0,.6-.6v-3.63A.6.6,0,0,0,86.75,139.53Zm-.61,3.62H83.72v-2.41h2.42Z"/><path class="cls-2" d="M74.66,149.05H71a.6.6,0,0,0-.6.6v3.63a.6.6,0,0,0,.6.6h3.63a.6.6,0,0,0,.6-.6v-3.63A.6.6,0,0,0,74.66,149.05Zm-.61,3.62H71.63v-2.41h2.42Z"/><path class="cls-2" d="M86.75,149.05H83.12a.6.6,0,0,0-.6.6v3.63a.6.6,0,0,0,.6.6h3.63a.6.6,0,0,0,.6-.6v-3.63A.6.6,0,0,0,86.75,149.05Zm-.61,3.62H83.72v-2.41h2.42Z"/><path class="cls-2" d="M80.7,156.53H77.08a.61.61,0,0,0-.61.61v7.1a.59.59,0,0,0,.52.59H80.7a.6.6,0,0,0,.61-.6v-7.1A.61.61,0,0,0,80.7,156.53Zm-3,1.21H80.1v5.9H77.68Z"/><path class="cls-2" d="M106.4,165h-55a.66.66,0,0,1-.65-.66.65.65,0,0,1,.65-.65h55a.65.65,0,0,1,.65.65A.66.66,0,0,1,106.4,165Z"/><polygon class="cls-2" points="99.67 164.77 97.48 164.77 97.48 163.88 98.78 163.88 98.78 150.15 99.67 150.15 99.67 164.77"/><polygon class="cls-2" points="97.03 152.8 96.39 152.17 99.23 149.28 102 152.17 101.35 152.79 99.22 150.57 97.03 152.8"/><polygon class="cls-2" points="97.03 156.05 96.39 155.42 99.23 152.53 102 155.43 101.35 156.05 99.22 153.82 97.03 156.05"/><polygon class="cls-2" points="97.03 159.3 96.39 158.68 99.23 155.79 102 158.68 101.35 159.3 99.22 157.07 97.03 159.3"/><polygon class="cls-2" points="97.03 162.56 96.39 161.93 99.23 159.04 102 161.93 101.35 162.55 99.22 160.33 97.03 162.56"/><polygon class="cls-2" points="58.85 164.76 56.69 164.76 56.69 163.88 57.96 163.88 57.96 150.37 58.85 150.37 58.85 164.76"/><polygon class="cls-2" points="56.24 152.98 55.61 152.36 58.41 149.51 61.13 152.36 60.49 152.97 58.4 150.78 56.24 152.98"/><polygon class="cls-2" points="56.24 156.18 55.61 155.56 58.41 152.72 61.13 155.56 60.49 156.18 58.4 153.99 56.24 156.18"/><polygon class="cls-2" points="56.24 159.38 55.61 158.76 58.41 155.92 61.13 158.77 60.49 159.38 58.4 157.19 56.24 159.38"/><polygon class="cls-2" points="56.24 162.59 55.61 161.97 58.41 159.12 61.13 161.97 60.49 162.58 58.4 160.39 56.24 162.59"/><path class="cls-2" d="M100.82,48.81h-31a3,3,0,0,0-3,3v16H103.8v-16A3,3,0,0,0,100.82,48.81Zm-32.58,3a1.59,1.59,0,0,1,1.59-1.58h31a1.59,1.59,0,0,1,1.59,1.58V66.37H68.24Z"/><path class="cls-2" d="M98.62,59.28H95a.61.61,0,0,0-.61.61V67a.61.61,0,0,0,.61.61h3.62a.61.61,0,0,0,.61-.61v-7.1A.61.61,0,0,0,98.62,59.28ZM98,66.39H95.6v-5.9H98Z"/><path class="cls-2" d="M78.88,56.17h-6a.45.45,0,0,1,0-.9h6a.45.45,0,0,1,0,.9Z"/><path class="cls-2" d="M78.88,58.23h-6a.45.45,0,1,1,0-.9h6a.45.45,0,1,1,0,.9Z"/><path class="cls-2" d="M78.88,60.3h-6a.45.45,0,0,1-.45-.45.45.45,0,0,1,.45-.45h6a.45.45,0,0,1,.45.45A.45.45,0,0,1,78.88,60.3Z"/><path class="cls-2" d="M76,26.66H73.58a1,1,0,0,0-1,1V49a1,1,0,0,0,1,1H76a1,1,0,0,0,1-1V27.69A1,1,0,0,0,76,26.66ZM73.94,28h1.73V48.68H73.94Z"/><path class="cls-2" d="M85.13,26.66H82.81a1.09,1.09,0,0,0-1.1,1.09V49a1.09,1.09,0,0,0,1.1,1.09h2.32A1.09,1.09,0,0,0,86.22,49V27.75A1.09,1.09,0,0,0,85.13,26.66ZM83.1,28h1.73V48.68H83.1Z"/><rect class="cls-2" x="73.24" y="30.74" width="3.12" height="1.64"/><rect class="cls-2" x="73.24" y="34.08" width="3.12" height="1.64"/><rect class="cls-2" x="73.24" y="37.42" width="3.12" height="1.64"/><rect class="cls-2" x="73.24" y="40.75" width="3.12" height="1.64"/><rect class="cls-2" x="82.4" y="30.74" width="3.12" height="1.64"/><rect class="cls-2" x="82.4" y="34.08" width="3.12" height="1.64"/><rect class="cls-2" x="82.4" y="37.42" width="3.12" height="1.64"/><rect class="cls-2" x="82.4" y="40.75" width="3.12" height="1.64"/><path class="cls-2" d="M220.21,51.31a.43.43,0,0,0-.28-.09h-1.22V50a.58.58,0,0,0-.59-.59v-3h-1.2v3H215.7v-3h-1.2v3h0a.59.59,0,0,0-.6.59s0,0,0,.09v1.11h-1.21a.51.51,0,0,0-.39.16.54.54,0,0,0-.21.44s0,3.65,0,3.66a.62.62,0,0,0,.37.54.93.93,0,0,0,.23,0h7.25a.61.61,0,0,0,.61-.58V51.82A.57.57,0,0,0,220.21,51.31Zm-.87,3.55h-6.06V52.44h1.22a.62.62,0,0,0,.61-.61v-1.2h2.4v1.2a.25.25,0,0,0,0,.12.36.36,0,0,0,0,.11.16.16,0,0,0,.05.11.31.31,0,0,0,.07.09.6.6,0,0,0,.43.18h1.21ZM212.08,53v1.31h1.2V53Zm0,0v1.31h1.2V53Z"/><path class="cls-2" d="M169.55,51.31a.38.38,0,0,0-.27-.09h-1.22V50a.58.58,0,0,0-.59-.59v-3h-1.2v3h-1.22v-3h-1.2v3h0a.6.6,0,0,0-.61.59s0,0,0,.09v1.11H162a.51.51,0,0,0-.38.16.55.55,0,0,0-.21.45s0,3.64,0,3.65a.62.62,0,0,0,.37.54.85.85,0,0,0,.22,0h7.26a.6.6,0,0,0,.6-.58V51.83A.56.56,0,0,0,169.55,51.31Zm-.87,3.55h-6.05V52.44h1.22a.61.61,0,0,0,.6-.61v-1.2h2.4v1.2a.61.61,0,0,0,.61.61h1.22ZM161.43,53v1.31h1.2V53Zm0,0v1.31h1.2V53Z"/><path class="cls-2" d="M89.22,72a.43.43,0,0,0-.28-.09H87.72v-1.2a.58.58,0,0,0-.59-.59v-3h-1.2v3H84.71v-3h-1.2v3h0a.59.59,0,0,0-.6.59s0,.06,0,.09v1.11H81.69a.63.63,0,0,0-.6.61v3.64a.68.68,0,0,0,0,.14h0a.59.59,0,0,0,.35.4.93.93,0,0,0,.23,0h7.25a.6.6,0,0,0,.59-.44h0a.59.59,0,0,0,0-.14V72.49A.59.59,0,0,0,89.22,72Zm-.87,3.55H82.29V73.1h1.22a.54.54,0,0,0,.28-.08.58.58,0,0,0,.31-.39.68.68,0,0,0,0-.14v-1.2h2.4v1.2a.59.59,0,0,0,0,.14.4.4,0,0,0,.15.26.23.23,0,0,0,.07.07.21.21,0,0,0,.08.06.55.55,0,0,0,.29.08h1.22Z"/><path class="cls-2" d="M82.69,169.48a.39.39,0,0,0-.28-.09H81.2v-1.2a.58.58,0,0,0-.59-.59v-3h-1.2v3H78.19v-3H77v3h0a.6.6,0,0,0-.61.59s0,.06,0,.09v1.11H75.16a.53.53,0,0,0-.38.16.57.57,0,0,0-.21.45v3.65a.59.59,0,0,0,.37.54.85.85,0,0,0,.22,0h7.25a.6.6,0,0,0,.61-.58V170A.58.58,0,0,0,82.69,169.48ZM81.82,173h-6v-2.42H77a.62.62,0,0,0,.61-.61v-1.2H80V170a.61.61,0,0,0,.61.61h1.22Z"/><path class="cls-2" d="M153.45,138.1a.41.41,0,0,0-.28-.09H152v-1.2a.58.58,0,0,0-.59-.59v-3h-1.2v3H149v-3h-1.2v3h0a.6.6,0,0,0-.61.59s0,.06,0,.09V138h-1.22a.51.51,0,0,0-.38.16.55.55,0,0,0-.21.45v3.64a.53.53,0,0,0,.09.3.54.54,0,0,0,.27.25.93.93,0,0,0,.23,0h7.25a.59.59,0,0,0,.52-.29.53.53,0,0,0,.09-.3v-3.64A.59.59,0,0,0,153.45,138.1Zm-.87,3.55h-6.05v-2.42h1.22l.16,0h0l.13-.07a.57.57,0,0,0,.32-.52v-1.2h2.39v1.2a.57.57,0,0,0,.32.52.24.24,0,0,0,.11.06.52.52,0,0,0,.18,0h1.22Zm-7.25-1.57v1.31h1.2v-1.31Zm0,0v1.31h1.2v-1.31Z"/><path class="cls-2" d="M219.23,155.91a.37.37,0,0,0-.17-.13.38.38,0,0,0-.27-.08h-1.22v-1.2a.58.58,0,0,0-.59-.59v-3h-1.2v3h-1.22v-3h-1.2v3h0a.6.6,0,0,0-.61.59s0,.05,0,.08v1.12h-1.22a.52.52,0,0,0-.38.15.17.17,0,0,0-.06.06.54.54,0,0,0-.15.4v3.63a.63.63,0,0,0,.37.56l.22,0h7.26a.6.6,0,0,0,.61-.59v-3.63A.54.54,0,0,0,219.23,155.91Zm-1,3.42h-6.05v-2.42h1.22a.6.6,0,0,0,.6-.6v-1.2h2.4v1.2a.6.6,0,0,0,.61.6h1.22Zm-7.25-2.24v1.3h1.2v-1.3Zm0,0v1.3h1.2v-1.3Z"/><path class="cls-2" d="M145,170h-3.62a.6.6,0,0,0-.61.6v3.63a.6.6,0,0,0,.61.6H145a.6.6,0,0,0,.61-.6v-3.63A.6.6,0,0,0,145,170Zm-.6,3.62H142v-2.41h2.42Z"/><path class="cls-2" d="M157.12,170H153.5a.6.6,0,0,0-.61.6v3.63a.6.6,0,0,0,.61.6h3.62a.6.6,0,0,0,.61-.6v-3.63A.6.6,0,0,0,157.12,170Zm-.6,3.62H154.1v-2.41h2.42Z"/><path class="cls-2" d="M149.27,164.52a2.42,2.42,0,1,0,2.41,2.42A2.42,2.42,0,0,0,149.27,164.52Zm0,3.63a1.21,1.21,0,1,1,1.2-1.21A1.21,1.21,0,0,1,149.27,168.15Z"/><path class="cls-2" d="M171.48,179.63H167.4v-1.21a1.7,1.7,0,0,0-1.81-1.81,1.76,1.76,0,0,0-.89.23,1.81,1.81,0,0,0-3.06,0,1.79,1.79,0,0,0-.89-.23,1.73,1.73,0,0,0-.6.11v-8l.88.57.06,0,.06,0a.45.45,0,0,0,.2,0h0a.52.52,0,0,0,.21,0h0a.61.61,0,0,0,.16-.12l0,0,.06-.08,0-.05a.36.36,0,0,0,0-.11.27.27,0,0,0,0-.12s0,0,0-.05v-2.42s0,0,0-.06a.53.53,0,0,0,0-.12.42.42,0,0,0,0-.1l-.06-.09a.76.76,0,0,0-.09-.09l0,0L149.59,158a.59.59,0,0,0-.65,0l-12.09,7.86,0,0a.76.76,0,0,0-.09.09l-.06.09a.42.42,0,0,0,0,.1l0,.12s0,0,0,.06v2.42s0,0,0,.05a.53.53,0,0,0,0,.12.36.36,0,0,0,0,.11s0,0,0,.05l0,0,.09.09.09.06.11,0,.12,0,.06,0h0l.11,0,.12,0,0,0,.87-.57v8a1.89,1.89,0,0,0-.6-.09,1.79,1.79,0,0,0-.89.23,1.81,1.81,0,0,0-3.06,0,1.76,1.76,0,0,0-.89-.23,1.81,1.81,0,0,0-1.81,1.81v1.21h-4.08a.61.61,0,1,0,0,1.21h44.43a.61.61,0,1,0,0-1.21Zm-33.1,0h-6v-1.21a.61.61,0,0,1,1.21,0,.61.61,0,1,0,1.21,0v-.61a.61.61,0,0,1,1.21,0v.61a.6.6,0,1,0,1.2,0,.61.61,0,0,1,.61-.6c.5,0,.6.24.6.6Zm-.6-12v-1l11.49-7.46,11.48,7.46v1l-11.16-7.25a.59.59,0,0,0-.65,0Zm10.28,12v-6h2.41v6Zm10.88,0h-7.26V173a.6.6,0,0,0-.6-.6h-3.63a.6.6,0,0,0-.6.6v6.65h-7.26V167.9l9.68-6.29,9.67,6.29Zm7.25,0h-6v-1.21a.6.6,0,0,1,.6-.6.61.61,0,0,1,.61.6.6.6,0,1,0,1.2,0v-.61a.61.61,0,0,1,.61-.6.6.6,0,0,1,.6.6v.61a.61.61,0,1,0,1.21,0,.6.6,0,0,1,.61-.6c.5,0,.6.24.6.6Z"/><path class="cls-2" d="M153.15,185.21a.38.38,0,0,0-.27-.09h-1.22v-1.2a.58.58,0,0,0-.59-.59v-3h-1.2v3h-1.22v-3h-1.2v3h0a.6.6,0,0,0-.61.59s0,.05,0,.09v1.11h-1.22a.52.52,0,0,0-.38.15.57.57,0,0,0-.21.46v3.63a0,0,0,0,0,0,0,.59.59,0,0,0,.36.53.83.83,0,0,0,.22,0h7.26a.59.59,0,0,0,.6-.56v-3.66A.57.57,0,0,0,153.15,185.21Zm-2.68.6a.07.07,0,0,0,0,.06.29.29,0,0,0,.05.13.42.42,0,0,0,.11.16.58.58,0,0,0,.42.18h1.22v2.41h-6.05v-2.41h1.21a.62.62,0,0,0,.43-.18l.08-.09a.4.4,0,0,0,.09-.21.57.57,0,0,0,0-.13v-1.2h2.4v1.21A.15.15,0,0,0,150.47,185.81Z"/><path class="cls-2" d="M84.66,236.1H81a.6.6,0,0,0-.61.6v3.63a.6.6,0,0,0,.61.6h3.62a.6.6,0,0,0,.61-.6V236.7A.6.6,0,0,0,84.66,236.1Zm-.6,3.62H81.64v-2.41h2.42Z"/><path class="cls-2" d="M96.75,236.1H93.13a.6.6,0,0,0-.61.6v3.63a.6.6,0,0,0,.61.6h3.62a.6.6,0,0,0,.61-.6V236.7A.6.6,0,0,0,96.75,236.1Zm-.6,3.62H93.73v-2.41h2.42Z"/><path class="cls-2" d="M88.89,230.66a2.42,2.42,0,1,0,2.42,2.42A2.41,2.41,0,0,0,88.89,230.66Zm0,3.62a1.21,1.21,0,1,1,1.21-1.2A1.2,1.2,0,0,1,88.89,234.28Z"/><path class="cls-2" d="M111.11,245.77H107v-1.21a1.7,1.7,0,0,0-1.81-1.81,1.76,1.76,0,0,0-.89.23,1.81,1.81,0,0,0-3.06,0,1.79,1.79,0,0,0-.89-.23,1.73,1.73,0,0,0-.6.11v-8l.88.58.06,0,.06,0a.46.46,0,0,0,.21,0,.52.52,0,0,0,.21,0l0,0a.42.42,0,0,0,.16-.11l0,0,.06-.07,0-.05a.49.49,0,0,0,0-.11.27.27,0,0,0,0-.12s0,0,0-.05v-2.42s0,0,0-.06a.53.53,0,0,0,0-.12.3.3,0,0,0,0-.1l-.06-.1-.09-.08,0,0-12.09-7.85a.59.59,0,0,0-.65,0L76.48,232l0,0-.09.08-.06.1a.3.3,0,0,0,0,.1l0,.12s0,0,0,.06v2.42s0,0,0,.05a.27.27,0,0,0,0,.12.49.49,0,0,0,0,.11l0,.05s0,0,0,0l.09.09.09.06.11.05.12,0h.11l.11,0,.12-.05h0l.88-.58v8a2.23,2.23,0,0,0-.6-.08,1.79,1.79,0,0,0-.89.23,1.81,1.81,0,0,0-3.06,0,1.76,1.76,0,0,0-.89-.23,1.81,1.81,0,0,0-1.81,1.81v1.21H66.68a.61.61,0,1,0,0,1.21h44.43a.61.61,0,1,0,0-1.21Zm-33.1,0H72v-1.21a.61.61,0,1,1,1.21,0,.61.61,0,0,0,1.21,0V244a.61.61,0,0,1,1.21,0v.61a.6.6,0,0,0,.6.6.61.61,0,0,0,.61-.6.6.6,0,0,1,.6-.61c.5,0,.6.25.6.61Zm-.6-12v-1l11.49-7.47,11.48,7.47v1l-11.16-7.26a.59.59,0,0,0-.65,0Zm10.28,12v-6.05H90.1v6.05Zm10.88,0H91.31v-6.65a.6.6,0,0,0-.6-.61H87.08a.6.6,0,0,0-.6.61v6.65H79.22V234l9.68-6.29L98.57,234Zm7.25,0h-6v-1.21a.6.6,0,0,1,.6-.61.61.61,0,0,1,.61.61.6.6,0,1,0,1.2,0V244a.61.61,0,0,1,.61-.6.6.6,0,0,1,.6.6v.61a.61.61,0,0,0,1.21,0,.61.61,0,0,1,.61-.61c.5,0,.6.25.6.61Z"/><path class="cls-2" d="M93.1,251.11a.59.59,0,0,0-.32-.44.38.38,0,0,0-.27-.09H91.29v-1.2a.58.58,0,0,0-.59-.59v-3H89.5v3H88.28v-3h-1.2v3h0a.6.6,0,0,0-.61.59s0,.06,0,.09v1.11H85.25a.53.53,0,0,0-.38.16.51.51,0,0,0-.2.37.22.22,0,0,0,0,.08v3.64a.61.61,0,0,0,.37.55.85.85,0,0,0,.22,0h7.26a.59.59,0,0,0,.6-.59v-3.64A.22.22,0,0,0,93.1,251.11Zm-1.19,3.11h-6V251.8h1.22a.61.61,0,0,0,.6-.61V250h2.4v1.2a.61.61,0,0,0,.61.61h1.22Z"/><path class="cls-2" d="M149.92,235v1.3h1.2V235Zm8.12-1.86a.38.38,0,0,0-.27-.08h-1.22v-1.2a.58.58,0,0,0-.59-.59v-3h-1.2v3h-1.22v-3h-1.2v3h0a.6.6,0,0,0-.61.59s0,.05,0,.08v1.12h-1.22a.54.54,0,0,0-.38.15.57.57,0,0,0-.21.46v3.63a.57.57,0,0,0,0,.18.61.61,0,0,0,.34.38l.22,0h7.26a.59.59,0,0,0,.57-.41.57.57,0,0,0,0-.18v-3.63A.58.58,0,0,0,158,233.13Zm-.87,3.55h-6v-2.42h1.3a.37.37,0,0,0,.15,0,.6.6,0,0,0,.38-.55v-1.2h2.4v1.2a.59.59,0,0,0,.37.55.42.42,0,0,0,.16,0h1.29ZM149.92,235v1.3h1.2V235Zm0,0v1.3h1.2V235Z"/><path class="cls-2" d="M149.92,218.07H146.3a.6.6,0,0,0-.61.6v3.63a.6.6,0,0,0,.61.6h3.62a.6.6,0,0,0,.61-.6v-3.63A.6.6,0,0,0,149.92,218.07Zm-.6,3.62H146.9v-2.42h2.42Z"/><path class="cls-2" d="M162,218.06h-3.62a.61.61,0,0,0-.61.61v3.63a.6.6,0,0,0,.61.6H162a.6.6,0,0,0,.61-.6v-3.63A.61.61,0,0,0,162,218.06Zm-.6,3.63H159v-2.42h2.42Z"/><path class="cls-2" d="M154.16,212.63a2.42,2.42,0,1,0,2.41,2.41A2.41,2.41,0,0,0,154.16,212.63Zm0,3.62a1.21,1.21,0,1,1,1.21-1.21A1.21,1.21,0,0,1,154.16,216.25Z"/><path class="cls-2" d="M176.37,227.74h-4.08v-1.21a1.7,1.7,0,0,0-1.81-1.82,1.77,1.77,0,0,0-.89.24,1.81,1.81,0,0,0-3.06,0,1.79,1.79,0,0,0-.89-.24,2,2,0,0,0-.6.11v-8l.88.57.06,0,.06,0a.57.57,0,0,0,.42,0l0,0a.46.46,0,0,0,.16-.11l0,0,.06-.07s0,0,0-.05l0-.11a.5.5,0,0,0,0-.12.43.43,0,0,1,0,0v-2.42s0,0,0-.06a.53.53,0,0,0,0-.12.3.3,0,0,0,0-.1l-.06-.1-.09-.09s0,0,0,0l-12.09-7.86a.61.61,0,0,0-.66,0l-12.09,7.86-.05,0-.08.09a.36.36,0,0,0-.07.1.3.3,0,0,0,0,.1l0,.12s0,0,0,.06v2.42a.43.43,0,0,1,0,0l0,.12a.49.49,0,0,0,0,.11s0,0,0,.05l0,0,.09.09.09.06.11.05.12,0h.11l.12,0,.11-.05.05,0,.88-.57v8a2.36,2.36,0,0,0-.61-.09,1.79,1.79,0,0,0-.89.24,1.81,1.81,0,0,0-3.06,0,1.77,1.77,0,0,0-.89-.24,1.82,1.82,0,0,0-1.81,1.82v1.21h-4.08a.6.6,0,1,0,0,1.2h44.43a.6.6,0,1,0,0-1.2Zm-33.09,0h-6.05v-1.21a.61.61,0,1,1,1.21,0,.61.61,0,0,0,1.21,0v-.61a.61.61,0,0,1,1.21,0v.61a.61.61,0,0,0,1.21,0,.6.6,0,0,1,.6-.61c.5,0,.61.24.61.61Zm-.61-12v-1l11.49-7.47,11.48,7.47v1l-11.15-7.25a.61.61,0,0,0-.66,0Zm10.28,12v-6.05h2.42v6.05Zm10.88,0h-7.26v-6.65a.6.6,0,0,0-.6-.61h-3.63a.6.6,0,0,0-.6.61v6.65h-7.26V216l9.68-6.29,9.67,6.29Zm7.25,0h-6v-1.21a.61.61,0,1,1,1.21,0,.61.61,0,0,0,1.21,0v-.61a.6.6,0,0,1,1.2,0v.61a.61.61,0,0,0,1.21,0,.61.61,0,0,1,.61-.61c.5,0,.6.24.6.61Z"/><path class="cls-2" d="M210.41,189.35h-3.62a.6.6,0,0,0-.61.6v3.63a.6.6,0,0,0,.61.6h3.62a.6.6,0,0,0,.61-.6V190A.6.6,0,0,0,210.41,189.35Zm-.6,3.62h-2.42v-2.41h2.42Z"/><path class="cls-2" d="M222.5,189.35h-3.62a.6.6,0,0,0-.61.6v3.63a.6.6,0,0,0,.61.6h3.62a.6.6,0,0,0,.61-.6V190A.6.6,0,0,0,222.5,189.35Zm-.6,3.62h-2.42v-2.41h2.42Z"/><path class="cls-2" d="M214.65,183.91a2.42,2.42,0,1,0,2.41,2.42A2.42,2.42,0,0,0,214.65,183.91Zm0,3.63a1.21,1.21,0,1,1,1.2-1.21A1.21,1.21,0,0,1,214.65,187.54Z"/><path class="cls-2" d="M236.86,199h-4.08v-1.21A1.7,1.7,0,0,0,231,196a1.76,1.76,0,0,0-.89.23,1.81,1.81,0,0,0-3.06,0,1.79,1.79,0,0,0-.89-.23,1.73,1.73,0,0,0-.6.11v-8l.88.58.06,0,.06,0a.57.57,0,0,0,.42,0h0a.48.48,0,0,0,.16-.12l0,0,.06-.08,0-.05a1.17,1.17,0,0,0,.05-.11.5.5,0,0,0,0-.12s0,0,0-.05v-2.42s0,0,0-.06a.53.53,0,0,0,0-.12.42.42,0,0,0,0-.1.35.35,0,0,0-.06-.09l-.09-.09,0,0L215,177.36a.61.61,0,0,0-.66,0l-12.09,7.86,0,0a.24.24,0,0,0-.08.09.22.22,0,0,0-.07.09.42.42,0,0,0,0,.1l0,.12s0,0,0,.06v2.42s0,0,0,.05a.53.53,0,0,0,0,.12.36.36,0,0,0,0,.11l0,.05s0,0,0,0a.76.76,0,0,0,.09.09.24.24,0,0,0,.09.06l.11.05.12,0h.11l.12,0,.11,0,0,0,.88-.58v8a2,2,0,0,0-.61-.09,1.79,1.79,0,0,0-.89.23,1.81,1.81,0,0,0-3.06,0,1.76,1.76,0,0,0-.89-.23,1.82,1.82,0,0,0-1.81,1.81V199h-4.08a.61.61,0,1,0,0,1.21h44.43a.61.61,0,1,0,0-1.21Zm-33.09,0h-6.05v-1.21a.61.61,0,0,1,1.21,0,.61.61,0,0,0,1.21,0v-.61a.61.61,0,0,1,1.21,0v.61a.61.61,0,0,0,1.21,0,.6.6,0,0,1,.6-.6c.5,0,.61.24.61.6Zm-.61-12v-1l11.49-7.46,11.48,7.46v1L215,179.78a.57.57,0,0,0-.66,0Zm10.28,12V193h2.42V199Zm10.88,0h-7.26v-6.65a.61.61,0,0,0-.6-.61h-3.63a.61.61,0,0,0-.6.61V199H205V187.29l9.68-6.29,9.67,6.29Zm7.25,0h-6v-1.21a.61.61,0,0,1,1.21,0,.61.61,0,0,0,1.21,0v-.61a.6.6,0,1,1,1.2,0v.61a.61.61,0,0,0,1.21,0,.6.6,0,0,1,.61-.6c.5,0,.6.24.6.6Z"/><path class="cls-2" d="M210.41,205.32v1.31h1.2v-1.31Zm8.37-1.17a.56.56,0,0,0-.25-.23.38.38,0,0,0-.27-.08H217v-1.2a.59.59,0,0,0-.59-.6v-3h-1.2v3H214v-3h-1.2v3h0a.61.61,0,0,0-.61.6s0,.05,0,.08v1.12H211a.54.54,0,0,0-.38.15.4.4,0,0,0-.13.16.51.51,0,0,0-.08.29v3.64a.63.63,0,0,0,.37.56l.22,0h7.26a.59.59,0,0,0,.6-.59v-3.64A.6.6,0,0,0,218.78,204.15Zm-1.12,3.32h-6v-2.42h1.22a.61.61,0,0,0,.6-.61v-1.2h2.4v1.2a.61.61,0,0,0,.61.61h1.21Z"/><path class="cls-2" d="M221.67,258.56a.43.43,0,0,0-.28-.09h-1.22v-1.2a.58.58,0,0,0-.59-.59v-3h-1.2v3h-1.22v-3H216v3h0a.59.59,0,0,0-.6.59s0,.05,0,.09v1.11h-1.22a.51.51,0,0,0-.38.16.54.54,0,0,0-.21.44v3.66a.64.64,0,0,0,.37.54.93.93,0,0,0,.22,0h7.26a.61.61,0,0,0,.61-.58v-3.66A.57.57,0,0,0,221.67,258.56Zm-.87,3.55h-6.06v-2.42H216a.62.62,0,0,0,.61-.61v-1.2H219v1.2a.61.61,0,0,0,.61.61h1.22Zm-7.26-1.86v1.3h1.2v-1.3Zm0,0v1.3h1.2v-1.3Z"/><path class="cls-2" d="M92.86,102.32H64.74a1.85,1.85,0,0,0-1.85,1.85v1.17a1.85,1.85,0,0,0,1.85,1.86H93a1.85,1.85,0,0,0,1.75-1.85v-1.17A1.85,1.85,0,0,0,92.86,102.32Zm.47,3a.47.47,0,0,1-.47.47H64.74a.47.47,0,0,1-.46-.47v-1.17a.47.47,0,0,1,.46-.46H92.86a.47.47,0,0,1,.47.46Z"/><path class="cls-2" d="M201.1,92.41v59.12h28.15V92.41Zm1.3,57.82V93.71H228v56.52Z"/><path class="cls-2" d="M210.94,97.52h-3.62a.61.61,0,0,0-.61.61v3.62a.61.61,0,0,0,.61.61h3.62a.61.61,0,0,0,.61-.61V98.13A.61.61,0,0,0,210.94,97.52Zm-.6,3.63h-2.42V98.73h2.42Z"/><path class="cls-2" d="M223,97.52h-3.62a.61.61,0,0,0-.61.61v3.62a.61.61,0,0,0,.61.61H223a.61.61,0,0,0,.61-.61V98.13A.61.61,0,0,0,223,97.52Zm-.6,3.63H220V98.73h2.42Z"/><path class="cls-2" d="M210.94,107.05h-3.62a.6.6,0,0,0-.61.6v3.63a.6.6,0,0,0,.61.6h3.62a.6.6,0,0,0,.61-.6v-3.63A.6.6,0,0,0,210.94,107.05Zm-.6,3.62h-2.42v-2.42h2.42Z"/><path class="cls-2" d="M223,107h-3.62a.61.61,0,0,0-.61.61v3.63a.6.6,0,0,0,.61.6H223a.6.6,0,0,0,.61-.6v-3.63A.61.61,0,0,0,223,107Zm-.6,3.63H220v-2.42h2.42Z"/><path class="cls-2" d="M210.94,116.57h-3.62a.6.6,0,0,0-.61.6v3.63a.6.6,0,0,0,.61.6h3.62a.6.6,0,0,0,.61-.6v-3.63A.6.6,0,0,0,210.94,116.57Zm-.6,3.62h-2.42v-2.42h2.42Z"/><path class="cls-2" d="M223,116.56h-3.62a.61.61,0,0,0-.61.61v3.63a.6.6,0,0,0,.61.6H223a.6.6,0,0,0,.61-.6v-3.63A.61.61,0,0,0,223,116.56Zm-.6,3.63H220v-2.42h2.42Z"/><path class="cls-2" d="M210.94,126.09h-3.62a.6.6,0,0,0-.61.6v3.63a.6.6,0,0,0,.61.6h3.62a.6.6,0,0,0,.61-.6v-3.63A.6.6,0,0,0,210.94,126.09Zm-.6,3.62h-2.42v-2.42h2.42Z"/><path class="cls-2" d="M223,126.09h-3.62a.6.6,0,0,0-.61.6v3.63a.6.6,0,0,0,.61.6H223a.6.6,0,0,0,.61-.6v-3.63A.6.6,0,0,0,223,126.09Zm-.6,3.62H220v-2.42h2.42Z"/><path class="cls-2" d="M210.94,135.61h-3.62a.6.6,0,0,0-.61.6v3.63a.6.6,0,0,0,.61.6h3.62a.6.6,0,0,0,.61-.6v-3.63A.6.6,0,0,0,210.94,135.61Zm-.6,3.62h-2.42v-2.42h2.42Z"/><path class="cls-2" d="M223,135.61h-3.62a.6.6,0,0,0-.61.6v3.63a.6.6,0,0,0,.61.6H223a.6.6,0,0,0,.61-.6v-3.63A.6.6,0,0,0,223,135.61Zm-.6,3.62H220v-2.42h2.42Z"/><path class="cls-2" d="M217,143.09h-3.63a.6.6,0,0,0-.6.6v7.11a.6.6,0,0,0,.6.6H217a.6.6,0,0,0,.6-.6v-7.11A.6.6,0,0,0,217,143.09Zm-3,1.21h2.42v5.89H214Z"/><path class="cls-2" d="M242.69,151.53h-55a.65.65,0,1,1,0-1.3h55a.65.65,0,0,1,0,1.3Z"/><polygon class="cls-2" points="235.96 151.33 233.77 151.33 233.77 150.43 235.06 150.43 235.06 136.71 235.96 136.71 235.96 151.33"/><polygon class="cls-2" points="233.31 139.35 232.67 138.72 235.52 135.84 238.28 138.73 237.63 139.35 235.51 137.12 233.31 139.35"/><polygon class="cls-2" points="233.31 142.61 232.67 141.98 235.52 139.09 238.28 141.98 237.63 142.6 235.51 140.38 233.31 142.61"/><polygon class="cls-2" points="233.31 145.86 232.67 145.23 235.52 142.34 238.28 145.24 237.63 145.86 235.51 143.63 233.31 145.86"/><polygon class="cls-2" points="233.31 149.12 232.67 148.49 235.52 145.6 238.28 148.49 237.63 149.11 235.51 146.89 233.31 149.12"/><polygon class="cls-2" points="195.13 151.32 192.97 151.32 192.97 150.44 194.25 150.44 194.25 136.93 195.13 136.93 195.13 151.32"/><polygon class="cls-2" points="192.53 139.53 191.9 138.92 194.69 136.07 197.42 138.92 196.78 139.53 194.69 137.34 192.53 139.53"/><polygon class="cls-2" points="192.53 142.74 191.9 142.12 194.69 139.28 197.42 142.12 196.78 142.73 194.69 140.54 192.53 142.74"/><polygon class="cls-2" points="192.53 145.94 191.9 145.32 194.69 142.48 197.42 145.33 196.78 145.94 194.69 143.75 192.53 145.94"/><polygon class="cls-2" points="192.53 149.14 191.9 148.53 194.69 145.68 197.42 148.53 196.78 149.14 194.69 146.95 192.53 149.14"/><path class="cls-2" d="M229.15,88.88H201a1.85,1.85,0,0,0-1.85,1.85V91.9A1.85,1.85,0,0,0,201,93.75h28.22A1.84,1.84,0,0,0,231,91.9V90.73A1.85,1.85,0,0,0,229.15,88.88Zm.47,3a.47.47,0,0,1-.47.47H201a.46.46,0,0,1-.46-.47V90.73a.46.46,0,0,1,.46-.46h28.12a.47.47,0,0,1,.47.46Z"/><polygon class="cls-2" points="129.44 133.85 127.28 133.85 127.28 132.97 128.56 132.97 128.56 119.45 129.44 119.45 129.44 133.85"/><polygon class="cls-2" points="126.84 122.06 126.21 121.44 129.01 118.6 131.73 121.45 131.09 122.06 129 119.87 126.84 122.06"/><polygon class="cls-2" points="126.84 125.27 126.21 124.65 129.01 121.8 131.73 124.65 131.09 125.26 129 123.07 126.84 125.27"/><polygon class="cls-2" points="126.84 128.47 126.21 127.85 129.01 125 131.73 127.85 131.09 128.46 129 126.27 126.84 128.47"/><polygon class="cls-2" points="126.84 131.67 126.21 131.05 129.01 128.21 131.73 131.06 131.09 131.66 129 129.48 126.84 131.67"/><path class="cls-2" d="M135.41,74.93v59.13h28.16V74.93Zm1.3,57.83V76.24h25.55v56.52Z"/><path class="cls-2" d="M145.25,80.05h-3.62a.61.61,0,0,0-.61.61v3.62a.61.61,0,0,0,.61.61h3.62a.61.61,0,0,0,.61-.61V80.66A.61.61,0,0,0,145.25,80.05Zm-.6,3.63h-2.42V81.26h2.42Z"/><path class="cls-2" d="M157.34,80.05h-3.62a.61.61,0,0,0-.61.61v3.62a.61.61,0,0,0,.61.61h3.62a.61.61,0,0,0,.61-.61V80.66A.61.61,0,0,0,157.34,80.05Zm-.6,3.63h-2.42V81.26h2.42Z"/><path class="cls-2" d="M145.25,89.57h-3.62a.61.61,0,0,0-.61.61V93.8a.61.61,0,0,0,.61.61h3.62a.61.61,0,0,0,.61-.61V90.18A.61.61,0,0,0,145.25,89.57Zm-.6,3.63h-2.42V90.78h2.42Z"/><path class="cls-2" d="M157.34,89.57h-3.62a.61.61,0,0,0-.61.61V93.8a.61.61,0,0,0,.61.61h3.62a.61.61,0,0,0,.61-.61V90.18A.61.61,0,0,0,157.34,89.57Zm-.6,3.63h-2.42V90.78h2.42Z"/><path class="cls-2" d="M145.25,99.09h-3.62a.61.61,0,0,0-.61.61v3.62a.61.61,0,0,0,.61.61h3.62a.61.61,0,0,0,.61-.61V99.7A.61.61,0,0,0,145.25,99.09Zm-.6,3.63h-2.42V100.3h2.42Z"/><path class="cls-2" d="M157.34,99.09h-3.62a.61.61,0,0,0-.61.61v3.62a.61.61,0,0,0,.61.61h3.62a.61.61,0,0,0,.61-.61V99.7A.61.61,0,0,0,157.34,99.09Zm-.6,3.63h-2.42V100.3h2.42Z"/><path class="cls-2" d="M145.25,108.61h-3.62a.61.61,0,0,0-.61.61v3.62a.61.61,0,0,0,.61.61h3.62a.61.61,0,0,0,.61-.61v-3.62A.61.61,0,0,0,145.25,108.61Zm-.6,3.63h-2.42v-2.42h2.42Z"/><path class="cls-2" d="M157.34,108.61h-3.62a.61.61,0,0,0-.61.61v3.62a.61.61,0,0,0,.61.61h3.62a.61.61,0,0,0,.61-.61v-3.62A.61.61,0,0,0,157.34,108.61Zm-.6,3.63h-2.42v-2.42h2.42Z"/><path class="cls-2" d="M145.25,118.13h-3.62a.61.61,0,0,0-.61.61v3.62a.61.61,0,0,0,.61.61h3.62a.61.61,0,0,0,.61-.61v-3.62A.61.61,0,0,0,145.25,118.13Zm-.6,3.63h-2.42v-2.42h2.42Z"/><path class="cls-2" d="M157.34,118.13h-3.62a.61.61,0,0,0-.61.61v3.62a.61.61,0,0,0,.61.61h3.62a.61.61,0,0,0,.61-.61v-3.62A.61.61,0,0,0,157.34,118.13Zm-.6,3.63h-2.42v-2.42h2.42Z"/><path class="cls-2" d="M151.3,125.62h-3.63a.6.6,0,0,0-.6.6v7.11a.6.6,0,0,0,.6.6h3.69a.61.61,0,0,0,.54-.6v-7.11A.6.6,0,0,0,151.3,125.62Zm-3,1.21h2.42v5.89h-2.42Z"/><path class="cls-2" d="M177,134.06H122a.65.65,0,0,1,0-1.3h55a.65.65,0,0,1,0,1.3Z"/><polygon class="cls-2" points="170.27 133.86 168.08 133.86 168.08 132.96 169.37 132.96 169.37 119.23 170.27 119.23 170.27 133.86"/><polygon class="cls-2" points="167.62 121.88 166.98 121.25 169.83 118.36 172.59 121.26 171.95 121.88 169.82 119.65 167.62 121.88"/><polygon class="cls-2" points="167.62 125.14 166.98 124.51 169.83 121.62 172.59 124.51 171.95 125.13 169.82 122.9 167.62 125.14"/><polygon class="cls-2" points="167.62 128.39 166.98 127.76 169.83 124.87 172.59 127.77 171.95 128.38 169.82 126.16 167.62 128.39"/><polygon class="cls-2" points="167.62 131.64 166.98 131.01 169.83 128.13 172.59 131.02 171.95 131.64 169.82 129.41 167.62 131.64"/><path class="cls-2" d="M163.46,71.41H135.34a1.85,1.85,0,0,0-1.85,1.85v1.17a1.85,1.85,0,0,0,1.85,1.85h28.23a1.84,1.84,0,0,0,1.74-1.84V73.26A1.85,1.85,0,0,0,163.46,71.41Zm.47,3a.47.47,0,0,1-.47.46H135.34a.46.46,0,0,1-.46-.46V73.26a.46.46,0,0,1,.46-.47h28.12a.47.47,0,0,1,.47.47Z"/><path class="cls-2" d="M176.87,36.91a2,2,0,0,0-1-.27H155.47a2,2,0,0,0-2,2v6.65a2,2,0,0,0,.12.69,2,2,0,0,0,1.46,1.3,2.22,2.22,0,0,0,.45,0h20.39a2.22,2.22,0,0,0,.45,0,2,2,0,0,0,1.46-1.3,2,2,0,0,0,.12-.69V38.67A2,2,0,0,0,176.87,36.91Zm-22,1.76a.65.65,0,0,1,.64-.65h20.39a.65.65,0,0,1,.65.65v6.65a.65.65,0,0,1-.65.65H155.47a.65.65,0,0,1-.64-.65Z"/><path class="cls-2" d="M175.73,34.3h-9.61A1.16,1.16,0,0,0,165,35.45v1.43A1.15,1.15,0,0,0,166.12,38h9.61a1.14,1.14,0,0,0,1.14-1.11V35.45A1.15,1.15,0,0,0,175.73,34.3Zm-9.37,2.34v-1h9.13v1Z"/><path class="cls-2" d="M188,47.31h-44.6a.65.65,0,1,1,0-1.3H188a.65.65,0,1,1,0,1.3Z"/><path class="cls-2" d="M166.66,39.44l-.75-.75a.26.26,0,0,0-.38,0,.27.27,0,0,0,0,.37l.23.22a3.09,3.09,0,0,0-1.7.49,3.13,3.13,0,0,0-1.35,2.1.25.25,0,0,0,.22.3.25.25,0,0,0,.3-.22,2.53,2.53,0,0,1,1.12-1.73,2.44,2.44,0,0,1,1.62-.39l-.44.43a.27.27,0,1,0,.38.38l.78-.79A.27.27,0,0,0,166.66,39.44Zm0,5.24a2.58,2.58,0,0,1-2.07-.1,2.5,2.5,0,0,1-1.15-1.21l.6.16a.26.26,0,0,0,.14-.51l-1.08-.29a.27.27,0,0,0-.33.23l-.28,1a.27.27,0,0,0,.19.33.26.26,0,0,0,.32-.19l.08-.3a3.11,3.11,0,0,0,1.27,1.22,3,3,0,0,0,2.5.12.26.26,0,1,0-.19-.49Zm2-.87-.31.08a3,3,0,0,0,.42-1.71A3,3,0,0,0,167.63,40a.28.28,0,0,0-.38,0,.26.26,0,0,0,.05.38,2.5,2.5,0,0,1,.94,1.83,2.53,2.53,0,0,1-.47,1.6l-.16-.59a.27.27,0,0,0-.33-.19.26.26,0,0,0-.18.32l.28,1.08a.27.27,0,0,0,.37.17l1-.27A.27.27,0,0,0,169,44,.26.26,0,0,0,168.65,43.81Z"/><path class="cls-2" d="M227.77,36.91a2,2,0,0,0-1-.27H206.37a2,2,0,0,0-2,2v6.65a2,2,0,0,0,.12.69,2.07,2.07,0,0,0,1.47,1.3,2.22,2.22,0,0,0,.45,0h20.39a2.22,2.22,0,0,0,.45,0,2,2,0,0,0,1.46-1.3,2,2,0,0,0,.12-.69V38.67A2,2,0,0,0,227.77,36.91Zm-22.05,1.76a.65.65,0,0,1,.65-.65h20.39a.65.65,0,0,1,.64.65v6.65a.65.65,0,0,1-.64.65H206.37a.65.65,0,0,1-.65-.65Z"/><path class="cls-2" d="M226.62,34.3H217a1.15,1.15,0,0,0-1.14,1.15v1.43A1.14,1.14,0,0,0,217,38h9.61a1.15,1.15,0,0,0,1.15-1.11V35.45A1.16,1.16,0,0,0,226.62,34.3Zm-9.36,2.34v-1h9.12v1Z"/><path class="cls-2" d="M238.86,47.31h-44.6a.65.65,0,1,1,0-1.3h44.6a.65.65,0,1,1,0,1.3Z"/><path class="cls-2" d="M217.56,39.44l-.76-.75a.25.25,0,0,0-.37,0,.27.27,0,0,0,0,.37l.22.22a3.06,3.06,0,0,0-3.05,2.59.27.27,0,0,0,.53.08,2.46,2.46,0,0,1,1.12-1.73,2.43,2.43,0,0,1,1.62-.39l-.44.43a.27.27,0,0,0,0,.38.27.27,0,0,0,.37,0l.79-.79A.28.28,0,0,0,217.56,39.44Zm0,5.24a2.55,2.55,0,0,1-2.06-.1,2.5,2.5,0,0,1-1.15-1.21l.6.16a.26.26,0,0,0,.13-.51L214,42.73a.28.28,0,0,0-.34.23l-.27,1a.27.27,0,0,0,.18.33.27.27,0,0,0,.33-.19l.08-.3a3,3,0,0,0,3.76,1.34.26.26,0,0,0-.19-.49Zm2-.87-.3.08a3,3,0,0,0,.42-1.71A3.07,3.07,0,0,0,218.52,40a.27.27,0,0,0-.37,0,.27.27,0,0,0,0,.38,2.5,2.5,0,0,1,.94,1.83,2.47,2.47,0,0,1-.47,1.6l-.16-.59a.26.26,0,0,0-.32-.19.26.26,0,0,0-.19.32l.29,1.08a.26.26,0,0,0,.37.17l1-.27a.28.28,0,0,0,.19-.33A.27.27,0,0,0,219.54,43.81Z"/><path class="cls-2" d="M112.84,67.77h-55a.7.7,0,0,1,0-1.39h55a.7.7,0,0,1,0,1.39Z"/></g></g></svg>