<svg xmlns="http://www.w3.org/2000/svg" xmlns:xlink="http://www.w3.org/1999/xlink" viewBox="0 0 200 200"><defs><style>.cls-1,.cls-2{fill:none;}.cls-1{clip-rule:evenodd;}.cls-2{fill-rule:evenodd;}.cls-3{fill:#df0016;}.cls-4{clip-path:url(#clip-path);}.cls-5{fill:#fff;}.cls-6{clip-path:url(#clip-path-2);}</style><clipPath id="clip-path"><path class="cls-1" d="M55.88,52.87v34c5.17-6.18,11.38-9.29,18.58-9.29a23.07,23.07,0,0,1,10,2.12,16.34,16.34,0,0,1,6.73,5.36,19.5,19.5,0,0,1,3.09,7.25,65.15,65.15,0,0,1,.83,12.31V141H79V108.25c0-6.5-.29-10.62-.9-12.37a8,8,0,0,0-3.24-4.16,10.06,10.06,0,0,0-5.8-1.57,13,13,0,0,0-7.14,2,11.36,11.36,0,0,0-4.62,6q-1.47,4-1.45,11.82l0,31.06H39.79V52.87H55.88"/></clipPath><clipPath id="clip-path-2"><path class="cls-1" d="M119.24,52.87v34q7.77-9.27,18.58-9.29a23.22,23.22,0,0,1,10,2.12,16.4,16.4,0,0,1,6.71,5.36,19.67,19.67,0,0,1,3.09,7.25,66,66,0,0,1,.83,12.31V141H142.4V108.25q0-9.75-.91-12.37a8,8,0,0,0-3.24-4.16,10.07,10.07,0,0,0-5.81-1.57,13,13,0,0,0-7.13,2,11.51,11.51,0,0,0-4.62,6q-1.44,4-1.45,11.82V141H103.16V52.87h16.08"/></clipPath></defs><g id="Layer_2" data-name="Layer 2"><g id="Layer_1-2" data-name="Layer 1"><path class="cls-2" d="M100,0A100,100,0,1,0,200,100,100,100,0,0,0,100,0Z"/><circle class="cls-3" cx="100" cy="100" r="100"/><g class="cls-4"><rect class="cls-5" x="29.79" y="42.87" width="75.33" height="108.14"/></g><g class="cls-6"><rect class="cls-5" x="93.16" y="42.87" width="75.31" height="108.14"/></g></g></g></svg>