<svg xmlns="http://www.w3.org/2000/svg" viewBox="0 0 180.37 67.05"><defs><style>.cls-1{fill:#ff4713;}.cls-2{fill:#fff;}</style></defs><g id="Layer_2" data-name="Layer 2"><g id="Layer_1-2" data-name="Layer 1"><path class="cls-1" d="M53.84,33.52a25.8,25.8,0,0,0-8.41-18.87,15.37,15.37,0,0,0-3.41.4,28.21,28.21,0,0,1,7.63,18.47A28.24,28.24,0,0,1,42.07,52a15.19,15.19,0,0,0,3.39.39h0A25.86,25.86,0,0,0,53.84,33.52Z"/><path class="cls-1" d="M52.14,16.21A29.48,29.48,0,0,1,58,33.52a29.55,29.55,0,0,1-5.82,17.25c5.64-2.79,10-9.18,10-17.26S57.83,19,52.14,16.21Z"/><path class="cls-1" d="M38.19,16.52a17,17,0,0,0-2.81,1.92,21.75,21.75,0,0,1,6.29,15.1,21.73,21.73,0,0,1-6.25,15.07,16.31,16.31,0,0,0,2.82,1.92,22.91,22.91,0,0,0,7.22-17A22.86,22.86,0,0,0,38.19,16.52Z"/><path class="cls-2" d="M3.53,33.52C3.53,21.06,9,10.29,16,5.21,6.64,9.62,0,20.63,0,33.52S6.64,57.43,16,61.84C9,56.76,3.53,46,3.53,33.52Z"/><path class="cls-2" d="M11.94,33.52c0-17.34,11.24-31.43,25.12-31.43a20.23,20.23,0,0,1,3.65.33,18.17,18.17,0,0,0-9-2.42C18,0,7.12,16.38,7.12,33.52S18,67.05,31.74,67.05a18.17,18.17,0,0,0,9-2.42,20.23,20.23,0,0,1-3.65.33C23.2,65,11.94,50.9,11.94,33.52Z"/><path class="cls-2" d="M61.5,50.93a22.63,22.63,0,0,1-17.65,8.81c-13.09,0-22.32-11.82-22.32-26.24S30.74,7.26,43.85,7.26A22.59,22.59,0,0,1,61.4,16C56.81,8.8,49.77,4.62,42.43,4.21,28.33,3.44,16,16.39,16,33.52c0,16.95,12,29.35,25.19,29.35.09,0,2.22-.06,2.29-.12a23.13,23.13,0,0,0,12.42-5.39h0A27.66,27.66,0,0,0,61.5,50.93Z"/><path class="cls-2" d="M87.92,56.12a1.27,1.27,0,0,1-1.23,1.22H78.75a1.25,1.25,0,0,1-1.22-1.22V24.71A15.49,15.49,0,0,1,78.75,18a9.66,9.66,0,0,1,3.27-4,12.21,12.21,0,0,1,4.76-1.89,32.32,32.32,0,0,1,5.63-.48q2.43,0,4.29.09c1.23.06,2.31.13,3.25.21s1.73.16,2.4.24l1.79.25c.81.12,1.21.53,1.21,1.21v5.65a1.16,1.16,0,0,1-.36.85,1.15,1.15,0,0,1-.85.37H91.8a4.14,4.14,0,0,0-3,.88,4.58,4.58,0,0,0-.88,3.25Z"/><path class="cls-2" d="M142.21,26.84a14.47,14.47,0,0,1-1.56,7.07,12.48,12.48,0,0,1-4.11,4.53,16.45,16.45,0,0,1-5.81,2.4,31.53,31.53,0,0,1-6.67.7c-.74,0-1.55,0-2.44-.06l-2.5-.12V56.12a1.25,1.25,0,0,1-1.21,1.22h-7.84a1.18,1.18,0,0,1-.85-.34,1,1,0,0,1-.37-.82V15.35a2.67,2.67,0,0,1,.67-2.12,4.45,4.45,0,0,1,2.07-.79q2.31-.37,5.69-.58c2.25-.14,4.48-.21,6.67-.21a33.45,33.45,0,0,1,6.75.67,16.09,16.09,0,0,1,5.85,2.37,12.71,12.71,0,0,1,4.11,4.52,14.63,14.63,0,0,1,1.55,7.08Zm-10.39-.55q0-3.28-2-4.65a10.19,10.19,0,0,0-5.8-1.36c-.2,0-.54,0-1,0l-3.89.15V32.85l.94,0,1.52.06,1.52,0H124c2.72,0,4.69-.5,5.93-1.52a5.62,5.62,0,0,0,1.85-4.61Z"/><path class="cls-2" d="M180.37,12.86a1.65,1.65,0,0,1-.3.85L165.61,34.25l14.52,21.81a1.06,1.06,0,0,1,.24.67c0,.41-.28.61-.85.61H169.07a1.15,1.15,0,0,1-.82-.25,3.12,3.12,0,0,1-.52-.6L155.4,36.44V56.12a1.27,1.27,0,0,1-1.22,1.22h-8A1.25,1.25,0,0,1,145,56.12V13.35a1.08,1.08,0,0,1,.36-.82,1.26,1.26,0,0,1,.85-.34h8a1.22,1.22,0,0,1,.85.34,1.05,1.05,0,0,1,.37.82V32.67l13.37-19.75a1.43,1.43,0,0,1,1.33-.73h9.3C180.05,12.19,180.37,12.42,180.37,12.86Z"/></g></g></svg>