<svg xmlns="http://www.w3.org/2000/svg" viewBox="0 0 304.29 67.05"><defs><style>.cls-1{fill:#ff4713;}.cls-2{fill:#fff;}</style></defs><g id="Layer_2" data-name="Layer 2"><g id="Layer_1-2" data-name="Layer 1"><path class="cls-1" d="M53.84,33.52a25.8,25.8,0,0,0-8.41-18.87,15.37,15.37,0,0,0-3.41.4,28.21,28.21,0,0,1,7.63,18.47A28.24,28.24,0,0,1,42.07,52a15.19,15.19,0,0,0,3.39.39h0A25.86,25.86,0,0,0,53.84,33.52Z"/><path class="cls-1" d="M52.14,16.21A29.48,29.48,0,0,1,58,33.52a29.55,29.55,0,0,1-5.82,17.25c5.64-2.79,10-9.18,10-17.26S57.83,19,52.14,16.21Z"/><path class="cls-1" d="M38.19,16.52a17,17,0,0,0-2.81,1.92,21.75,21.75,0,0,1,6.29,15.1,21.73,21.73,0,0,1-6.25,15.07,16.31,16.31,0,0,0,2.82,1.92,22.91,22.91,0,0,0,7.22-17A22.86,22.86,0,0,0,38.19,16.52Z"/><path class="cls-2" d="M3.53,33.52C3.53,21.06,9,10.29,16,5.21,6.64,9.62,0,20.63,0,33.52S6.64,57.43,16,61.84C9,56.76,3.53,46,3.53,33.52Z"/><path class="cls-2" d="M11.94,33.52c0-17.34,11.24-31.43,25.12-31.43a20.23,20.23,0,0,1,3.65.33,18.17,18.17,0,0,0-9-2.42C18,0,7.12,16.38,7.12,33.52S18,67.05,31.74,67.05a18.17,18.17,0,0,0,9-2.42,20.23,20.23,0,0,1-3.65.33C23.2,65,11.94,50.9,11.94,33.52Z"/><path class="cls-2" d="M61.5,50.93a22.63,22.63,0,0,1-17.65,8.81c-13.09,0-22.32-11.82-22.32-26.24S30.74,7.26,43.85,7.26A22.59,22.59,0,0,1,61.4,16C56.81,8.8,49.77,4.62,42.43,4.21,28.33,3.44,16,16.39,16,33.52c0,16.95,12,29.35,25.19,29.35.09,0,2.22-.06,2.29-.12a23.13,23.13,0,0,0,12.42-5.39h0A27.66,27.66,0,0,0,61.5,50.93Z"/><path class="cls-2" d="M82.21,24.55a.49.49,0,0,1-.14.33.49.49,0,0,1-.34.14H79.39a.49.49,0,0,1-.33-.14.45.45,0,0,1-.14-.33V12.1a6,6,0,0,1,.43-2.47,3.61,3.61,0,0,1,1.16-1.48,4.52,4.52,0,0,1,1.74-.72,12.23,12.23,0,0,1,2.16-.19c.71,0,1.31,0,1.79,0s.89,0,1.23.08.62.07.85.11l.63.1a.86.86,0,0,1,.37.15.46.46,0,0,1,.1.35V9.59a.48.48,0,0,1-.47.47H84.08a2,2,0,0,0-1.46.43,2.36,2.36,0,0,0-.41,1.61Z"/><path class="cls-2" d="M98.72,19.32a7.37,7.37,0,0,1-.37,2.35,5.21,5.21,0,0,1-1.08,1.86,5,5,0,0,1-1.76,1.23,6.89,6.89,0,0,1-4.9,0,5,5,0,0,1-1.77-1.23,5.19,5.19,0,0,1-1.07-1.86,7.11,7.11,0,0,1-.37-2.35V17.4A7.17,7.17,0,0,1,87.77,15a5.27,5.27,0,0,1,1.07-1.86A5,5,0,0,1,90.61,12a6.89,6.89,0,0,1,4.9,0,5,5,0,0,1,1.76,1.23A5.29,5.29,0,0,1,98.35,15a7.44,7.44,0,0,1,.37,2.36ZM95.59,17.4A3.79,3.79,0,0,0,95,15.07a2.5,2.5,0,0,0-3.79,0,3.86,3.86,0,0,0-.64,2.33v1.92a3.88,3.88,0,0,0,.64,2.33,2.52,2.52,0,0,0,3.79,0,3.81,3.81,0,0,0,.64-2.33Z"/><path class="cls-2" d="M111.55,19.27a6.37,6.37,0,0,1-1.4,4.37,5.4,5.4,0,0,1-4.26,1.57l-1,0c-.39,0-.81-.07-1.25-.13v4.19a.46.46,0,0,1-.15.33.45.45,0,0,1-.33.14H101a.48.48,0,0,1-.47-.47V12.76a.54.54,0,0,1,.12-.39,1.08,1.08,0,0,1,.52-.25,20.63,20.63,0,0,1,4.76-.62,5.4,5.4,0,0,1,4.26,1.58,6.35,6.35,0,0,1,1.4,4.37Zm-3.13-1.82a8.07,8.07,0,0,0-.1-1.35,3.09,3.09,0,0,0-.4-1.07,1.86,1.86,0,0,0-.78-.71,2.72,2.72,0,0,0-1.25-.26c-.43,0-.86,0-1.29,0a6.8,6.8,0,0,0-1,.12v8.26q.5.07,1.17.12c.45,0,.81,0,1.1,0a2.6,2.6,0,0,0,1.25-.26,1.86,1.86,0,0,0,.78-.71,3,3,0,0,0,.4-1.06,8.07,8.07,0,0,0,.1-1.35Z"/><path class="cls-2" d="M124.21,19.32a7.11,7.11,0,0,1-.37,2.35,5.06,5.06,0,0,1-1.08,1.86A5,5,0,0,1,121,24.76a6.89,6.89,0,0,1-4.9,0,5,5,0,0,1-1.76-1.23,5.06,5.06,0,0,1-1.08-1.86,7.11,7.11,0,0,1-.37-2.35V17.4a7.17,7.17,0,0,1,.37-2.36,5.15,5.15,0,0,1,1.08-1.86A5,5,0,0,1,116.1,12a6.89,6.89,0,0,1,4.9,0,5,5,0,0,1,1.76,1.23A5.15,5.15,0,0,1,123.84,15a7.17,7.17,0,0,1,.37,2.36Zm-3.13-1.92a3.79,3.79,0,0,0-.64-2.33,2.49,2.49,0,0,0-3.78,0A3.79,3.79,0,0,0,116,17.4v1.92a3.81,3.81,0,0,0,.64,2.33,2.51,2.51,0,0,0,3.78,0,3.81,3.81,0,0,0,.64-2.33Z"/><path class="cls-2" d="M128,25v2.8a.49.49,0,0,1-.14.33.45.45,0,0,1-.33.14h-2.18a.45.45,0,0,1-.33-.14.45.45,0,0,1-.14-.33V22.91a.45.45,0,0,1,.14-.33.45.45,0,0,1,.33-.14H127l2.27-8.52a3.28,3.28,0,0,1,.62-1.3,3.19,3.19,0,0,1,.86-.73,3.14,3.14,0,0,1,.95-.32,7.24,7.24,0,0,1,.86-.07,7.08,7.08,0,0,1,.86.07,3.12,3.12,0,0,1,.93.32,3.08,3.08,0,0,1,.87.73,3.43,3.43,0,0,1,.63,1.3l2.4,8.52h1.37a.45.45,0,0,1,.33.14.45.45,0,0,1,.14.33v4.91a.45.45,0,0,1-.14.33.45.45,0,0,1-.33.14h-2.18a.45.45,0,0,1-.33-.14.45.45,0,0,1-.14-.33V25Zm2.18-2.58H135L133,14.65a.43.43,0,0,0-.43-.38c-.22,0-.36.13-.42.38Z"/><path class="cls-2" d="M149.6,24.7a.62.62,0,0,1-.4.2,8.35,8.35,0,0,1-1.19.22,16.58,16.58,0,0,1-1.87.09,6.45,6.45,0,0,1-2.14-.35,4.66,4.66,0,0,1-1.7-1.08,5.14,5.14,0,0,1-1.14-1.8,6.94,6.94,0,0,1-.41-2.52v-2.2a6.86,6.86,0,0,1,.41-2.52,5.14,5.14,0,0,1,1.14-1.8,4.53,4.53,0,0,1,1.7-1.08,6.2,6.2,0,0,1,2.14-.36,16.34,16.34,0,0,1,1.87.1,7.33,7.33,0,0,1,1.19.21.74.74,0,0,1,.4.2.76.76,0,0,1,.1.42V14a.32.32,0,0,1-.12.27.57.57,0,0,1-.31.08h-.07l-.66-.08c-.21,0-.42,0-.64-.05l-.76,0-1,0a2.29,2.29,0,0,0-.82.15,1.79,1.79,0,0,0-.73.48,2.74,2.74,0,0,0-.52,1,5,5,0,0,0-.2,1.53v2.2a5.12,5.12,0,0,0,.2,1.53,2.69,2.69,0,0,0,.52.94,1.92,1.92,0,0,0,.73.49,2.52,2.52,0,0,0,.82.14h1l.76,0c.22,0,.43,0,.64,0l.66-.09h.07a.5.5,0,0,1,.31.09.29.29,0,0,1,.12.27v1.54A.7.7,0,0,1,149.6,24.7Z"/><path class="cls-2" d="M162,24.74a.27.27,0,0,1-.09.2.41.41,0,0,1-.24.08h-2.89a.61.61,0,0,1-.38-.15,1.55,1.55,0,0,1-.31-.32l-3.71-5.4v5.38a.48.48,0,0,1-.15.34.43.43,0,0,1-.33.15h-2.18a.46.46,0,0,1-.33-.15.51.51,0,0,1-.14-.34V12.14a.48.48,0,0,1,.47-.47h2.18a.45.45,0,0,1,.33.14.46.46,0,0,1,.15.33v5.21l4.05-5.4a.52.52,0,0,1,.27-.22.74.74,0,0,1,.27-.06h2.65c.24,0,.36.09.36.26a.42.42,0,0,1-.1.24L157.15,18,162,24.55A.37.37,0,0,1,162,24.74Z"/><path class="cls-2" d="M173.14,24.55a.49.49,0,0,1-.14.33.49.49,0,0,1-.34.14h-2a.48.48,0,0,1-.47-.47v-.38a8.22,8.22,0,0,1-1.66.77,5.37,5.37,0,0,1-1.68.27,6.69,6.69,0,0,1-1.47-.16,3.24,3.24,0,0,1-1.31-.62,3.33,3.33,0,0,1-.95-1.21,4.57,4.57,0,0,1-.37-2v-.1a4.58,4.58,0,0,1,.32-1.77,3.16,3.16,0,0,1,1-1.28,4.81,4.81,0,0,1,1.8-.78,11.27,11.27,0,0,1,2.64-.26H170V16a1.83,1.83,0,0,0-.51-1.54,2.58,2.58,0,0,0-1.57-.38c-.76,0-1.49,0-2.2.06s-1.27.08-1.66.13H164a.71.71,0,0,1-.31-.07.39.39,0,0,1-.11-.33V12.38c0-.27.15-.43.45-.5.47-.09,1-.18,1.71-.26a19.05,19.05,0,0,1,2.24-.12,5.86,5.86,0,0,1,3.87,1.12A4.18,4.18,0,0,1,173.14,16ZM170,19.15h-1.5a5.33,5.33,0,0,0-1.32.13,2,2,0,0,0-.81.38,1.2,1.2,0,0,0-.4.63,2.87,2.87,0,0,0-.11.87v.1a1.38,1.38,0,0,0,.4,1.17,2.24,2.24,0,0,0,1.31.3,4.67,4.67,0,0,0,1.28-.19,6.3,6.3,0,0,0,1.15-.48Z"/><path class="cls-2" d="M174.5,24.81a.2.2,0,0,1,.05-.14l3.5-5.12a5,5,0,0,1-2.17-1.31,3.43,3.43,0,0,1-.81-2.43v-.16a3.62,3.62,0,0,1,.52-2,3.71,3.71,0,0,1,1.4-1.26,6.34,6.34,0,0,1,2-.67,16,16,0,0,1,2.45-.19q1.23,0,2.16.06c.63,0,1.23.1,1.81.18a1.47,1.47,0,0,1,.52.15.42.42,0,0,1,.19.39V24.67a.33.33,0,0,1-.13.25.43.43,0,0,1-.29.1H183.5a.48.48,0,0,1-.33-.1.35.35,0,0,1-.12-.25V19.93l-.86.06h-1.08s-3.25,4.82-3.32,4.9a.32.32,0,0,1-.28.12h-2.7C174.61,25,174.5,25,174.5,24.81Zm3.65-9a1.53,1.53,0,0,0,.8,1.55,6.4,6.4,0,0,0,2.54.37h.79l.44,0h.33V14a6,6,0,0,0-.73-.07c-.3,0-.58,0-.83,0a6.63,6.63,0,0,0-2.51.36,1.38,1.38,0,0,0-.83,1.39Z"/><path class="cls-2" d="M91.16,32.86a5.65,5.65,0,0,1-.56,2.63,4.61,4.61,0,0,1-1.5,1.71,5.9,5.9,0,0,1-2.17.93,12.15,12.15,0,0,1-2.61.27c-.32,0-.68,0-1.09,0l-1,0v6.18a.53.53,0,0,1-.13.33.45.45,0,0,1-.32.14H79.39a.45.45,0,0,1-.33-.14.45.45,0,0,1-.14-.33V28.2a.58.58,0,0,1,.2-.51,1.15,1.15,0,0,1,.56-.2c.61-.09,1.32-.17,2.13-.23s1.65-.08,2.52-.08a12.81,12.81,0,0,1,2.6.26,5.91,5.91,0,0,1,2.18.9A4.69,4.69,0,0,1,90.6,30a5.58,5.58,0,0,1,.56,2.62Zm-3.29-.21A2.42,2.42,0,0,0,87,30.53a4.6,4.6,0,0,0-2.66-.63h-.49L82.65,30a3.72,3.72,0,0,0-.44,0v5.63h.44l1.67.06A4.2,4.2,0,0,0,87.05,35a2.68,2.68,0,0,0,.82-2.13Z"/><path class="cls-2" d="M103.39,38.78c0,.39-.16.59-.47.59h-7.7v.07a4.85,4.85,0,0,0,.12,1.06,2.58,2.58,0,0,0,.44,1,2.29,2.29,0,0,0,.87.71,3.22,3.22,0,0,0,1.41.27c.87,0,1.69,0,2.45-.08l2-.16a.57.57,0,0,1,.31.08.32.32,0,0,1,.12.28v1.56a.83.83,0,0,1-.09.43c0,.09-.19.15-.41.19l-1.07.19-1,.11c-.34,0-.71.06-1.12.07s-.87,0-1.4,0a7.39,7.39,0,0,1-1.91-.27,5.3,5.3,0,0,1-1.86-1,5.14,5.14,0,0,1-1.41-1.82,6.7,6.7,0,0,1-.55-2.9V37.45A7.73,7.73,0,0,1,92.47,35a5.4,5.4,0,0,1,1.1-1.9,4.79,4.79,0,0,1,1.79-1.2,6.92,6.92,0,0,1,4.83,0A4.65,4.65,0,0,1,102,33.12,5.41,5.41,0,0,1,103,35a7.45,7.45,0,0,1,.37,2.42Zm-3.13-1.73a3.07,3.07,0,0,0-.68-2.15,2.31,2.31,0,0,0-1.8-.76,2.39,2.39,0,0,0-1.82.75,3,3,0,0,0-.71,2.16v.1h5Z"/><path class="cls-2" d="M113.61,44.64a.68.68,0,0,1-.4.2,7.38,7.38,0,0,1-1.18.21,14.6,14.6,0,0,1-1.88.1,6.2,6.2,0,0,1-2.14-.36,4.51,4.51,0,0,1-1.7-1.07,5.33,5.33,0,0,1-1.14-1.8,7.16,7.16,0,0,1-.41-2.52V37.19a7.16,7.16,0,0,1,.41-2.52,5.14,5.14,0,0,1,1.14-1.8A4.51,4.51,0,0,1,108,31.8a6.2,6.2,0,0,1,2.14-.36,16.9,16.9,0,0,1,1.88.09,8.44,8.44,0,0,1,1.18.22.68.68,0,0,1,.4.2.72.72,0,0,1,.1.41V33.9a.29.29,0,0,1-.12.27.5.5,0,0,1-.31.09h-.07l-.66-.09-.64,0-.76,0h-1a2.52,2.52,0,0,0-.82.14,1.92,1.92,0,0,0-.73.49,2.65,2.65,0,0,0-.52,1,5,5,0,0,0-.2,1.52V39.4a5,5,0,0,0,.2,1.52,2.74,2.74,0,0,0,.52.95,1.79,1.79,0,0,0,.73.48,2.29,2.29,0,0,0,.82.15l1,0,.76,0c.22,0,.43,0,.64-.05l.66-.08h.07a.57.57,0,0,1,.31.08.32.32,0,0,1,.12.28v1.53A.76.76,0,0,1,113.61,44.64Z"/><path class="cls-2" d="M126.87,32a.26.26,0,0,1,0,.14l-4,13.83a12.15,12.15,0,0,1-.61,1.67,3.65,3.65,0,0,1-.87,1.16,3.32,3.32,0,0,1-1.34.67,8,8,0,0,1-2,.21c-.19,0-.4,0-.64,0l-.7-.07-.65-.1a4.22,4.22,0,0,1-.52-.11,2.68,2.68,0,0,1-.34-.13.31.31,0,0,1-.16-.28V47.47a.37.37,0,0,1,.15-.31.48.48,0,0,1,.33-.12h0l.6,0,1.46.09c.23,0,.44,0,.61,0a2.08,2.08,0,0,0,1.18-.29,2.14,2.14,0,0,0,.69-1.22l.19-.71H120a2.64,2.64,0,0,1-.55-.06,1.54,1.54,0,0,1-.56-.25,2.15,2.15,0,0,1-.52-.58A4,4,0,0,1,117.9,43l-3.11-10.84a.78.78,0,0,1,0-.16c0-.26.15-.38.45-.38h2.39a.37.37,0,0,1,.29.13.75.75,0,0,1,.16.29l2.39,9.64a1.84,1.84,0,0,0,.14.41.24.24,0,0,0,.19.11H121L123.55,32a.77.77,0,0,1,.17-.29.45.45,0,0,1,.31-.11h2.41a.45.45,0,0,1,.31.11A.4.4,0,0,1,126.87,32Z"/><path class="cls-2" d="M139.22,39.21a6.3,6.3,0,0,1-1.4,4.36,5.4,5.4,0,0,1-4.26,1.58c-.28,0-.62,0-1,0s-.82-.07-1.26-.13v4.19a.45.45,0,0,1-.14.33.46.46,0,0,1-.33.15h-2.18a.43.43,0,0,1-.33-.15.42.42,0,0,1-.14-.33V32.69a.62.62,0,0,1,.11-.39,1.25,1.25,0,0,1,.53-.24,16.46,16.46,0,0,1,2.36-.45,18.52,18.52,0,0,1,2.39-.17A5.43,5.43,0,0,1,137.82,33a6.32,6.32,0,0,1,1.4,4.37Zm-3.12-1.83A8,8,0,0,0,136,36,2.85,2.85,0,0,0,135.6,35a2,2,0,0,0-.78-.71,2.62,2.62,0,0,0-1.26-.26c-.42,0-.85,0-1.29,0s-.76.08-1,.12v8.27c.33,0,.72.08,1.17.11s.82.05,1.1.05a2.74,2.74,0,0,0,1.26-.26,2,2,0,0,0,.78-.71,2.85,2.85,0,0,0,.39-1.06,8.11,8.11,0,0,0,.11-1.35Z"/><path class="cls-2" d="M149.38,44.64a.64.64,0,0,1-.4.2,7.38,7.38,0,0,1-1.18.21,14.43,14.43,0,0,1-1.87.1,6.12,6.12,0,0,1-2.14-.36,4.47,4.47,0,0,1-1.71-1.07,5.33,5.33,0,0,1-1.14-1.8,7.16,7.16,0,0,1-.41-2.52V37.19a7.16,7.16,0,0,1,.41-2.52,5.14,5.14,0,0,1,1.14-1.8,4.47,4.47,0,0,1,1.71-1.07,6.12,6.12,0,0,1,2.14-.36,16.71,16.71,0,0,1,1.87.09,8.44,8.44,0,0,1,1.18.22.64.64,0,0,1,.4.2.65.65,0,0,1,.1.41V33.9a.29.29,0,0,1-.12.27.5.5,0,0,1-.31.09H149l-.66-.09-.64,0-.76,0h-1a2.58,2.58,0,0,0-.83.14,1.82,1.82,0,0,0-.72.49,2.38,2.38,0,0,0-.52,1,4.71,4.71,0,0,0-.2,1.52V39.4a4.71,4.71,0,0,0,.2,1.52,2.45,2.45,0,0,0,.52.95,1.69,1.69,0,0,0,.72.48,2.34,2.34,0,0,0,.83.15l1,0,.76,0c.22,0,.43,0,.64-.05l.66-.08h.07a.57.57,0,0,1,.31.08.32.32,0,0,1,.12.28v1.53A.69.69,0,0,1,149.38,44.64Z"/><path class="cls-2" d="M161.86,39.25a7.39,7.39,0,0,1-.36,2.36,5.36,5.36,0,0,1-1.08,1.86,5,5,0,0,1-1.76,1.23,6.92,6.92,0,0,1-4.91,0A5,5,0,0,1,152,43.47a5.36,5.36,0,0,1-1.08-1.86,7.39,7.39,0,0,1-.36-2.36V37.34a7.39,7.39,0,0,1,.36-2.36A5.36,5.36,0,0,1,152,33.12a5,5,0,0,1,1.76-1.23,6.92,6.92,0,0,1,4.91,0,5,5,0,0,1,1.76,1.23A5.36,5.36,0,0,1,161.5,35a7.39,7.39,0,0,1,.36,2.36Zm-3.12-1.91A3.84,3.84,0,0,0,158.1,35a2.52,2.52,0,0,0-3.79,0,3.91,3.91,0,0,0-.64,2.34v1.91a3.86,3.86,0,0,0,.64,2.33,2.5,2.5,0,0,0,3.79,0,3.79,3.79,0,0,0,.64-2.33Z"/><path class="cls-2" d="M172.06,44.64a.68.68,0,0,1-.4.2,7.38,7.38,0,0,1-1.18.21,14.43,14.43,0,0,1-1.87.1,6.22,6.22,0,0,1-2.15-.36,4.51,4.51,0,0,1-1.7-1.07,5.33,5.33,0,0,1-1.14-1.8,7.16,7.16,0,0,1-.41-2.52V37.19a7.16,7.16,0,0,1,.41-2.52,5.14,5.14,0,0,1,1.14-1.8,4.51,4.51,0,0,1,1.7-1.07,6.22,6.22,0,0,1,2.15-.36,16.71,16.71,0,0,1,1.87.09,8.44,8.44,0,0,1,1.18.22.68.68,0,0,1,.4.2.65.65,0,0,1,.1.41V33.9a.29.29,0,0,1-.12.27.5.5,0,0,1-.31.09h-.07l-.66-.09-.64,0-.76,0h-1a2.58,2.58,0,0,0-.83.14,1.82,1.82,0,0,0-.72.49,2.52,2.52,0,0,0-.53,1,5,5,0,0,0-.2,1.52V39.4a5,5,0,0,0,.2,1.52,2.6,2.6,0,0,0,.53.95,1.69,1.69,0,0,0,.72.48,2.34,2.34,0,0,0,.83.15l1,0,.76,0c.22,0,.43,0,.64-.05l.66-.08h.07a.57.57,0,0,1,.31.08.32.32,0,0,1,.12.28v1.53A.69.69,0,0,1,172.06,44.64Z"/><path class="cls-2" d="M176.87,44.46a.49.49,0,0,1-.14.34.44.44,0,0,1-.34.16h-2.17a.44.44,0,0,1-.34-.16.49.49,0,0,1-.14-.34V32.1a.51.51,0,0,1,.14-.34.46.46,0,0,1,.34-.15h2.17a.46.46,0,0,1,.34.15.51.51,0,0,1,.14.34v4.79h4.69V32.1a.47.47,0,0,1,.14-.34.43.43,0,0,1,.33-.15h2.18a.46.46,0,0,1,.33.15.51.51,0,0,1,.14.34V44.46a.49.49,0,0,1-.14.34.44.44,0,0,1-.33.16H182a.41.41,0,0,1-.33-.16.45.45,0,0,1-.14-.34V39.23h-4.69Z"/><path class="cls-2" d="M196.69,44.49a.48.48,0,0,1-.47.47h-2a.48.48,0,0,1-.47-.47v-.38a8.53,8.53,0,0,1-1.66.77,5.37,5.37,0,0,1-1.68.27,6.7,6.7,0,0,1-1.47-.17,3.35,3.35,0,0,1-1.31-.61,3.42,3.42,0,0,1-1-1.21,4.62,4.62,0,0,1-.36-2V41.1a4.46,4.46,0,0,1,.32-1.78,3,3,0,0,1,1-1.27,5,5,0,0,1,1.8-.79,11.9,11.9,0,0,1,2.64-.26h1.49V36a1.86,1.86,0,0,0-.5-1.54,2.68,2.68,0,0,0-1.58-.38c-.76,0-1.49,0-2.2.06s-1.26.09-1.66.13h-.12a.56.56,0,0,1-.3-.07q-.12-.06-.12-.33V32.32a.48.48,0,0,1,.45-.5c.47-.1,1-.18,1.71-.26a19.05,19.05,0,0,1,2.24-.12,5.91,5.91,0,0,1,3.87,1.11A4.2,4.2,0,0,1,196.69,36Zm-3.13-5.4h-1.5a5.33,5.33,0,0,0-1.32.13,1.91,1.91,0,0,0-.81.38,1.18,1.18,0,0,0-.4.62,3.36,3.36,0,0,0-.11.88v.09a1.4,1.4,0,0,0,.41,1.18,2.31,2.31,0,0,0,1.31.29,4.3,4.3,0,0,0,1.27-.19,5.43,5.43,0,0,0,1.15-.47Z"/><path class="cls-2" d="M209.81,39.13a7.75,7.75,0,0,1-.36,2.43,5.4,5.4,0,0,1-1.08,1.89,4.9,4.9,0,0,1-1.76,1.25,6.89,6.89,0,0,1-4.9,0,4.94,4.94,0,0,1-1.77-1.25,5.23,5.23,0,0,1-1.07-1.89,7.47,7.47,0,0,1-.37-2.43V37.81c0-1.19,0-2.27.1-3.27a8.07,8.07,0,0,1,.6-2.61A4.64,4.64,0,0,1,200.69,30a6.8,6.8,0,0,1,2.8-1.09l1.42-.26a2,2,0,0,0,1.16-.48,1.5,1.5,0,0,0,.34-.72c0-.21.13-.31.35-.31h2.51c.19,0,.28.1.28.31a2.85,2.85,0,0,1-.84,2.17,4.78,4.78,0,0,1-2.38,1.14l-1.49.31a12.31,12.31,0,0,0-1.75.48,1.6,1.6,0,0,0-1,1,3.07,3.07,0,0,1,.92-.31,5.67,5.67,0,0,1,1.14-.12,6.23,6.23,0,0,1,2.45.45,5,5,0,0,1,1.76,1.23,5.36,5.36,0,0,1,1.08,1.86,7.39,7.39,0,0,1,.36,2.36Zm-3.12-1.08a4.41,4.41,0,0,0-.54-2.34,2.7,2.7,0,0,0-4,0,4.22,4.22,0,0,0-.58,2.34v1.08a4,4,0,0,0,.64,2.55,2.72,2.72,0,0,0,3.79,0,4,4,0,0,0,.64-2.55Z"/><path class="cls-2" d="M217.65,32.08a.43.43,0,0,1,.15-.33.42.42,0,0,1,.33-.14h2.17a.48.48,0,0,1,.48.47v5.21l4.05-5.4a.51.51,0,0,1,.27-.22.74.74,0,0,1,.27-.06H228c.24,0,.36.08.36.26a.34.34,0,0,1-.1.23L223.52,38l4.81,6.54a.34.34,0,0,1,.07.18.29.29,0,0,1-.09.21.41.41,0,0,1-.24.08h-2.89a.57.57,0,0,1-.38-.16,1.82,1.82,0,0,1-.31-.31l-3.71-5.4v5.37a.49.49,0,0,1-.14.34.44.44,0,0,1-.34.16h-2.17a.41.41,0,0,1-.33-.16.46.46,0,0,1-.15-.34V39.09l-3.71,5.4a1.82,1.82,0,0,1-.31.31.57.57,0,0,1-.38.16h-2.89a.41.41,0,0,1-.24-.08.29.29,0,0,1-.09-.21.34.34,0,0,1,.07-.18L214.91,38l-4.76-5.85a.34.34,0,0,1-.1-.23c0-.18.12-.26.36-.26h2.65a.74.74,0,0,1,.27.06.51.51,0,0,1,.27.22l4.05,5.4Z"/><path class="cls-2" d="M239.52,44.49a.48.48,0,0,1-.47.47h-2a.48.48,0,0,1-.47-.47v-.38a8.53,8.53,0,0,1-1.66.77,5.37,5.37,0,0,1-1.68.27,6.54,6.54,0,0,1-1.46-.17,3.33,3.33,0,0,1-1.32-.61,3.42,3.42,0,0,1-.95-1.21,4.62,4.62,0,0,1-.36-2V41.1a4.46,4.46,0,0,1,.32-1.78,3,3,0,0,1,1-1.27,4.85,4.85,0,0,1,1.79-.79A11.9,11.9,0,0,1,234.9,37h1.5V36a1.86,1.86,0,0,0-.51-1.54,2.68,2.68,0,0,0-1.58-.38c-.76,0-1.49,0-2.2.06s-1.26.09-1.66.13h-.11a.57.57,0,0,1-.31-.07q-.12-.06-.12-.33V32.32a.48.48,0,0,1,.45-.5c.47-.1,1-.18,1.72-.26a18.87,18.87,0,0,1,2.23-.12,5.91,5.91,0,0,1,3.87,1.11A4.2,4.2,0,0,1,239.52,36Zm-3.12-5.4h-1.5a5.47,5.47,0,0,0-1.33.13,1.91,1.91,0,0,0-.81.38,1.24,1.24,0,0,0-.4.62,3.36,3.36,0,0,0-.11.88v.09a1.4,1.4,0,0,0,.41,1.18,2.31,2.31,0,0,0,1.31.29,4.25,4.25,0,0,0,1.27-.19A5.74,5.74,0,0,0,236.4,42Z"/><path class="cls-2" d="M244.86,44.46a.49.49,0,0,1-.14.34.44.44,0,0,1-.33.16h-2.18a.41.41,0,0,1-.33-.16.46.46,0,0,1-.15-.34V32.08a.43.43,0,0,1,.15-.33.42.42,0,0,1,.33-.14h2.18a.45.45,0,0,1,.33.14.45.45,0,0,1,.14.33V37h3a7.61,7.61,0,0,1,.45-2.19,4.89,4.89,0,0,1,1.09-1.74,4.94,4.94,0,0,1,1.74-1.15,6.45,6.45,0,0,1,2.38-.41,6.23,6.23,0,0,1,2.45.45,5,5,0,0,1,1.76,1.23A5.36,5.36,0,0,1,258.77,35a7.38,7.38,0,0,1,.36,2.35V39.3a7.44,7.44,0,0,1-.36,2.36,5.4,5.4,0,0,1-1.08,1.85,5,5,0,0,1-1.76,1.24,7.16,7.16,0,0,1-4.83,0,4.77,4.77,0,0,1-1.74-1.13,4.89,4.89,0,0,1-1.09-1.74,7.61,7.61,0,0,1-.45-2.19h-3ZM256,37.38a3.81,3.81,0,0,0-.64-2.33,2.52,2.52,0,0,0-3.79,0,3.88,3.88,0,0,0-.64,2.33V39.3a3.86,3.86,0,0,0,.64,2.33,2.5,2.5,0,0,0,3.79,0A3.79,3.79,0,0,0,256,39.3Z"/><path class="cls-2" d="M267.82,32.1a.51.51,0,0,1,.14-.34.46.46,0,0,1,.34-.15h2.17a.43.43,0,0,1,.33.15.48.48,0,0,1,.15.34V42.38H274a.84.84,0,0,0,.58-.16q.18-.15.18-.72V32.1a.51.51,0,0,1,.14-.34.46.46,0,0,1,.33-.15h2.18a.43.43,0,0,1,.33.15.47.47,0,0,1,.14.34s0,9.73,0,9.88l0,.4h1.82a.45.45,0,0,1,.33.14.43.43,0,0,1,.14.33v4.9a.42.42,0,0,1-.14.33.43.43,0,0,1-.33.15h-2.18a.43.43,0,0,1-.33-.15.42.42,0,0,1-.14-.33V45H264.77a10.25,10.25,0,0,1-1.51-.1,2.85,2.85,0,0,1-1.23-.45,2.39,2.39,0,0,1-.84-1,4.68,4.68,0,0,1-.3-1.84V32.1a.47.47,0,0,1,.14-.34.43.43,0,0,1,.33-.15h2.18a.46.46,0,0,1,.33.15.51.51,0,0,1,.14.34v9.4q0,.57.18.72a.84.84,0,0,0,.58.16h3.05Z"/><path class="cls-2" d="M291.25,44.49a.45.45,0,0,1-.14.33.45.45,0,0,1-.33.14h-2a.45.45,0,0,1-.33-.14.46.46,0,0,1-.15-.33v-.38a8.73,8.73,0,0,1-1.65.77,5.46,5.46,0,0,1-1.68.27,6.7,6.7,0,0,1-1.47-.17,3.33,3.33,0,0,1-1.32-.61,3.39,3.39,0,0,1-.94-1.21,4.47,4.47,0,0,1-.37-2V41.1a4.64,4.64,0,0,1,.32-1.78,3,3,0,0,1,1-1.27,4.83,4.83,0,0,1,1.8-.79,11.77,11.77,0,0,1,2.64-.26h1.49V36a1.86,1.86,0,0,0-.51-1.54,2.67,2.67,0,0,0-1.57-.38c-.76,0-1.5,0-2.21.06s-1.26.09-1.65.13h-.12a.57.57,0,0,1-.31-.07q-.12-.06-.12-.33V32.32a.48.48,0,0,1,.45-.5c.47-.1,1.05-.18,1.72-.26a18.93,18.93,0,0,1,2.24-.12,6,6,0,0,1,3.87,1.11A4.2,4.2,0,0,1,291.25,36Zm-3.12-5.4h-1.5a5.33,5.33,0,0,0-1.32.13,1.85,1.85,0,0,0-.81.38,1.19,1.19,0,0,0-.41.62,3.38,3.38,0,0,0-.1.88v.09a1.39,1.39,0,0,0,.4,1.18,2.33,2.33,0,0,0,1.31.29,4.25,4.25,0,0,0,1.27-.19,5.74,5.74,0,0,0,1.16-.47Z"/><path class="cls-2" d="M292.62,44.75a.18.18,0,0,1,.05-.15l3.5-5.11A5.11,5.11,0,0,1,294,38.18a3.47,3.47,0,0,1-.8-2.43v-.17a3.59,3.59,0,0,1,.52-2,3.82,3.82,0,0,1,1.4-1.27,6.61,6.61,0,0,1,2-.66,14.93,14.93,0,0,1,2.45-.19c.82,0,1.55,0,2.17.06s1.23.1,1.81.18a1.54,1.54,0,0,1,.52.15.4.4,0,0,1,.19.39V44.6a.3.3,0,0,1-.13.25.48.48,0,0,1-.3.11h-2.24a.5.5,0,0,1-.34-.11.34.34,0,0,1-.11-.25V39.87l-.87.06h-1.08l-3.31,4.9a.34.34,0,0,1-.28.12h-2.7C292.72,45,292.62,44.89,292.62,44.75Zm3.65-9a1.51,1.51,0,0,0,.8,1.55,6.57,6.57,0,0,0,2.53.37l.36,0h1.21V33.93a6,6,0,0,0-.74-.07l-.83,0a6.43,6.43,0,0,0-2.51.37,1.36,1.36,0,0,0-.82,1.38Z"/><path class="cls-2" d="M91.7,64.68c0,.14-.12.22-.35.22H88.17a.58.58,0,0,1-.54-.27l-5.42-8.07v7.86a.45.45,0,0,1-.14.33.46.46,0,0,1-.34.15H79.39a.43.43,0,0,1-.33-.15.42.42,0,0,1-.14-.33V47.78a.4.4,0,0,1,.14-.32.44.44,0,0,1,.33-.13h2.34a.48.48,0,0,1,.34.13.43.43,0,0,1,.14.32v7.53L88,47.52a.48.48,0,0,1,.22-.16,1.51,1.51,0,0,1,.32,0h2.7c.3,0,.45.09.45.28a.64.64,0,0,1-.16.38l-6.06,7.84,6.1,8.57A.6.6,0,0,1,91.7,64.68Z"/><path class="cls-2" d="M103.21,59.19a7.06,7.06,0,0,1-.37,2.35,5.19,5.19,0,0,1-1.07,1.86A5.11,5.11,0,0,1,100,64.63a6.89,6.89,0,0,1-4.9,0,5,5,0,0,1-1.76-1.23,5.06,5.06,0,0,1-1.08-1.86,7.06,7.06,0,0,1-.37-2.35V57.27a7.06,7.06,0,0,1,.37-2.35,5.06,5.06,0,0,1,1.08-1.86,5,5,0,0,1,1.76-1.23,6.89,6.89,0,0,1,4.9,0,5.11,5.11,0,0,1,1.77,1.23,5.19,5.19,0,0,1,1.07,1.86,7.06,7.06,0,0,1,.37,2.35Zm-3.13-1.92a3.81,3.81,0,0,0-.64-2.33,2.51,2.51,0,0,0-3.78,0A3.81,3.81,0,0,0,95,57.27v1.92a3.81,3.81,0,0,0,.64,2.33,2.49,2.49,0,0,0,3.78,0,3.81,3.81,0,0,0,.64-2.33Z"/><path class="cls-2" d="M118.2,64.9H116a.29.29,0,0,1-.22-.12.33.33,0,0,1-.11-.24V56.21c0-.11,0-.17-.07-.17l-.1.1-1.87,3.4a.49.49,0,0,1-.27.23,1.09,1.09,0,0,1-.39.08h-2.18a1.15,1.15,0,0,1-.41-.08.6.6,0,0,1-.3-.23l-1.87-3.4-.09-.1c-.05,0-.07.06-.07.17v8.33a.37.37,0,0,1-.11.24.31.31,0,0,1-.23.12h-2.2c-.25,0-.38-.09-.38-.27V52.3a.66.66,0,0,1,.26-.52.93.93,0,0,1,.6-.21h1.8a.85.85,0,0,1,.47.13.92.92,0,0,1,.33.32l3,5.49c.08.16.17.24.28.24s.16-.08.24-.24l3-5.49a.88.88,0,0,1,.34-.32.85.85,0,0,1,.47-.13h1.8a.91.91,0,0,1,.59.21.66.66,0,0,1,.26.52V64.63C118.58,64.81,118.45,64.9,118.2,64.9Z"/><path class="cls-2" d="M124.78,54.12a.82.82,0,0,0-.58.16q-.18.15-.18.72v9.4a.51.51,0,0,1-.14.34.47.47,0,0,1-.33.16h-2.18a.44.44,0,0,1-.33-.16.48.48,0,0,1-.15-.34V55a4.68,4.68,0,0,1,.31-1.85,2.39,2.39,0,0,1,.84-1,2.85,2.85,0,0,1,1.23-.45,10.25,10.25,0,0,1,1.51-.1H128a10.11,10.11,0,0,1,1.5.1,2.76,2.76,0,0,1,1.23.45,2.26,2.26,0,0,1,.84,1,4.5,4.5,0,0,1,.31,1.85V64.4a.51.51,0,0,1-.14.34.47.47,0,0,1-.33.16h-2.18a.44.44,0,0,1-.33-.16.47.47,0,0,1-.14-.34V55q0-.57-.18-.72a.84.84,0,0,0-.58-.16Z"/><path class="cls-2" d="M143.8,64.42a.42.42,0,0,1-.14.33.43.43,0,0,1-.33.15h-2a.52.52,0,0,1-.48-.48V64a8.15,8.15,0,0,1-1.65.77,5.46,5.46,0,0,1-1.68.27,6.69,6.69,0,0,1-1.47-.16,3.22,3.22,0,0,1-2.26-1.82,4.47,4.47,0,0,1-.37-2V61a4.64,4.64,0,0,1,.32-1.78,3.06,3.06,0,0,1,1-1.28,4.82,4.82,0,0,1,1.8-.78,11.77,11.77,0,0,1,2.64-.26h1.49v-1a1.84,1.84,0,0,0-.51-1.54,2.68,2.68,0,0,0-1.58-.38c-.75,0-1.49,0-2.2.06s-1.26.08-1.65.13h-.12a.57.57,0,0,1-.31-.07q-.12-.08-.12-.33V52.25a.48.48,0,0,1,.45-.49c.47-.1,1.05-.19,1.72-.27a21.46,21.46,0,0,1,2.23-.11,6,6,0,0,1,3.88,1.11,4.18,4.18,0,0,1,1.33,3.41ZM140.68,59h-1.5a5.86,5.86,0,0,0-1.32.13,2.18,2.18,0,0,0-.81.38,1.26,1.26,0,0,0-.41.63,3.25,3.25,0,0,0-.11.88v.09a1.37,1.37,0,0,0,.41,1.17,2.24,2.24,0,0,0,1.31.3,4.25,4.25,0,0,0,1.27-.19,7.2,7.2,0,0,0,1.16-.47Z"/><path class="cls-2" d="M149.12,64.4a.51.51,0,0,1-.14.34.47.47,0,0,1-.34.16h-2.17a.47.47,0,0,1-.34-.16.51.51,0,0,1-.14-.34V52a.49.49,0,0,1,.14-.34.44.44,0,0,1,.34-.16h2.17a.44.44,0,0,1,.34.16.49.49,0,0,1,.14.34v4.78h4.69V52a.45.45,0,0,1,.14-.34.41.41,0,0,1,.33-.16h2.18a.44.44,0,0,1,.33.16.49.49,0,0,1,.14.34V64.4a.51.51,0,0,1-.14.34.47.47,0,0,1-.33.16h-2.18a.44.44,0,0,1-.33-.16.47.47,0,0,1-.14-.34V59.17h-4.69Z"/><path class="cls-2" d="M167,57.22l-4.69,7.18a1,1,0,0,1-.33.36,1.05,1.05,0,0,1-.61.14h-1.71a.47.47,0,0,1-.33-.16.51.51,0,0,1-.14-.34V52a.49.49,0,0,1,.14-.34.44.44,0,0,1,.33-.16h2.18a.41.41,0,0,1,.33.16.45.45,0,0,1,.14.34v7.15L167,52a1.71,1.71,0,0,1,.26-.31,1.06,1.06,0,0,1,.71-.17h1.68a.41.41,0,0,1,.33.16.46.46,0,0,1,.15.34V64.4a.48.48,0,0,1-.15.34.44.44,0,0,1-.33.16h-2.18a.47.47,0,0,1-.33-.16.51.51,0,0,1-.14-.34Z"/><path class="cls-2" d="M171.44,64.68a.2.2,0,0,1,.05-.14l3.5-5.11a5,5,0,0,1-2.17-1.32,3.39,3.39,0,0,1-.81-2.42v-.17a3.59,3.59,0,0,1,.52-2,3.73,3.73,0,0,1,1.4-1.27,6.1,6.1,0,0,1,2-.66,14.84,14.84,0,0,1,2.45-.19q1.23,0,2.16.06c.63,0,1.23.09,1.81.17a1.69,1.69,0,0,1,.52.16.4.4,0,0,1,.19.39V64.54a.31.31,0,0,1-.13.25.44.44,0,0,1-.29.11h-2.25a.49.49,0,0,1-.33-.11.33.33,0,0,1-.12-.25V59.81c-.4,0-.68,0-.87,0l-.69,0h-.38s-3.25,4.82-3.32,4.9a.34.34,0,0,1-.28.12h-2.7C171.54,64.9,171.44,64.82,171.44,64.68Zm3.65-9a1.53,1.53,0,0,0,.8,1.55,6.63,6.63,0,0,0,2.54.36H180v-3.7c-.19,0-.44,0-.74-.07l-.82,0a6.4,6.4,0,0,0-2.51.37,1.35,1.35,0,0,0-.83,1.38Z"/></g></g></svg>