<svg xmlns="http://www.w3.org/2000/svg" viewBox="0 0 62.22 67.05"><defs><style>.cls-1{fill:#ff4713;}.cls-2{fill:#1f6a95;}</style></defs><g id="Layer_2" data-name="Layer 2"><g id="Layer_1-2" data-name="Layer 1"><path class="cls-1" d="M53.84,33.52a25.8,25.8,0,0,0-8.41-18.87,15.37,15.37,0,0,0-3.41.4,28.21,28.21,0,0,1,7.63,18.47A28.24,28.24,0,0,1,42.07,52a15.19,15.19,0,0,0,3.39.39h0A25.86,25.86,0,0,0,53.84,33.52Z"/><path class="cls-1" d="M52.14,16.21A29.48,29.48,0,0,1,58,33.52a29.55,29.55,0,0,1-5.82,17.25c5.64-2.79,10-9.18,10-17.26S57.83,19,52.14,16.21Z"/><path class="cls-1" d="M38.19,16.52a17,17,0,0,0-2.81,1.92,21.75,21.75,0,0,1,6.29,15.1,21.73,21.73,0,0,1-6.25,15.07,16.31,16.31,0,0,0,2.82,1.92,22.91,22.91,0,0,0,7.22-17A22.86,22.86,0,0,0,38.19,16.52Z"/><path class="cls-2" d="M3.53,33.52C3.53,21.06,9,10.29,16,5.21,6.64,9.62,0,20.63,0,33.52S6.64,57.43,16,61.84C9,56.76,3.53,46,3.53,33.52Z"/><path class="cls-2" d="M11.94,33.52c0-17.34,11.24-31.43,25.12-31.43a20.23,20.23,0,0,1,3.65.33,18.17,18.17,0,0,0-9-2.42C18,0,7.12,16.38,7.12,33.52S18,67.05,31.74,67.05a18.17,18.17,0,0,0,9-2.42,20.23,20.23,0,0,1-3.65.33C23.2,65,11.94,50.9,11.94,33.52Z"/><path class="cls-2" d="M61.5,50.93a22.63,22.63,0,0,1-17.65,8.81c-13.09,0-22.32-11.82-22.32-26.24S30.74,7.26,43.85,7.26A22.59,22.59,0,0,1,61.4,16C56.81,8.8,49.77,4.62,42.43,4.21,28.33,3.44,16,16.39,16,33.52c0,16.95,12,29.35,25.19,29.35.09,0,2.22-.06,2.29-.12a23.13,23.13,0,0,0,12.42-5.39h0A27.66,27.66,0,0,0,61.5,50.93Z"/></g></g></svg>